<?xml version="1.0" encoding="UTF-8" standalone="no"?>
<svg
   xmlns:dc="http://purl.org/dc/elements/1.1/"
   xmlns:cc="http://web.resource.org/cc/"
   xmlns:rdf="http://www.w3.org/1999/02/22-rdf-syntax-ns#"
   xmlns:svg="http://www.w3.org/2000/svg"
   xmlns="http://www.w3.org/2000/svg"
   xmlns:xlink="http://www.w3.org/1999/xlink"
   xmlns:sodipodi="http://inkscape.sourceforge.net/DTD/sodipodi-0.dtd"
   xmlns:inkscape="http://www.inkscape.org/namespaces/inkscape"
   width="112mm"
   height="149mm"
   viewBox="0 0 11200 14900"
   id="svg2"
   sodipodi:version="0.32"
   inkscape:version="0.40+cvs"
   sodipodi:docname="COPIED~1.SVG"
   sodipodi:docbase="G:\CRAIGO~1\LOGOGA~1\Livrable">
  <metadata
     id="metadata93">
    <rdf:RDF
       id="RDF95">
      <cc:Work
         rdf:about=""
         id="Work97">
        <dc:format
           id="format99">image/svg+xml</dc:format>
        <dc:type
           id="type101"
           rdf:resource="http://purl.org/dc/dcmitype/StillImage" />
      </cc:Work>
    </rdf:RDF>
  </metadata>
  <defs
     id="defs91">
    <linearGradient
       y2="684.87341"
       x2="9598.1055"
       y1="2465.2422"
       x1="9598.1045"
       gradientTransform="scale(0.706371,1.415687)"
       gradientUnits="userSpaceOnUse"
       id="linearGradient2428"
       xlink:href="#linearGradient2404"
       inkscape:collect="always" />
    <linearGradient
       y2="668.44019"
       x2="6511.9102"
       y1="2434.2158"
       x1="6511.9102"
       gradientTransform="scale(0.706371,1.415687)"
       gradientUnits="userSpaceOnUse"
       id="linearGradient2426"
       xlink:href="#linearGradient2404"
       inkscape:collect="always" />
    <linearGradient
       gradientUnits="userSpaceOnUse"
       y2="684.87341"
       x2="9598.1055"
       y1="2465.2422"
       x1="9598.1045"
       gradientTransform="scale(0.706371,1.415687)"
       id="linearGradient2416"
       xlink:href="#linearGradient2404"
       inkscape:collect="always" />
    <linearGradient
       gradientUnits="userSpaceOnUse"
       y2="668.44019"
       x2="6511.9102"
       y1="2434.2158"
       x1="6511.9102"
       gradientTransform="scale(0.706371,1.415687)"
       id="linearGradient2396"
       xlink:href="#linearGradient2404"
       inkscape:collect="always" />
    <linearGradient
       id="linearGradient2390">
      <stop
         id="stop2392"
         offset="0"
         style="stop-color:#999999;stop-opacity:1;" />
      <stop
         id="stop2394"
         offset="1"
         style="stop-color:#999999;stop-opacity:0;" />
    </linearGradient>
    <linearGradient
       id="linearGradient2398">
      <stop
         id="stop2400"
         offset="0"
         style="stop-color:#999999;stop-opacity:1;" />
      <stop
         id="stop2402"
         offset="1"
         style="stop-color:#999999;stop-opacity:0;" />
    </linearGradient>
    <linearGradient
       id="linearGradient2404">
      <stop
         id="stop2406"
         offset="0.00000000"
         style="stop-color:#cccccc;stop-opacity:1.0000000;" />
      <stop
         id="stop2408"
         offset="1.0000000"
         style="stop-color:#505050;stop-opacity:1.0000000;" />
    </linearGradient>
  </defs>
  <sodipodi:namedview
     id="base"
     pagecolor="#ffffff"
     bordercolor="#666666"
     borderopacity="1.0"
     inkscape:pageopacity="0.0"
     inkscape:pageshadow="2"
     inkscape:window-width="1280"
     inkscape:window-height="913"
     inkscape:zoom="2.3660022"
     inkscape:cx="196.32181"
     inkscape:cy="264.38171"
     inkscape:window-x="-4"
     inkscape:window-y="-4"
     inkscape:current-layer="svg2" />
  <path
     id="text1614"
     d="M 3309.9329,7136.6031 L 3226.1953,7282.7334 L 3226.1953,7545.4396 L 2979.9082,7545.4396 L 2979.9082,7213.7730 L 3313.2167,6642.3870 C 3341.6762,6592.0360 3379.9875,6552.6301 3428.1507,6524.1692 C 3476.3130,6494.6158 3532.1380,6479.8386 3595.6259,6479.8376 C 3660.2071,6479.8386 3715.4849,6492.4266 3761.4592,6517.6016 C 3808.5265,6542.7786 3848.4797,6584.9210 3881.3189,6644.0289 L 4211.3436,7213.7730 L 4211.3436,7545.4396 L 3965.0565,7545.4396 L 3965.0565,7277.8077 L 3882.9608,7136.6031 L 3309.9329,7136.6031 L 3309.9329,7136.6031 M 3740.1143,6890.3160 L 3667.8701,6765.5306 C 3659.1125,6748.0176 3648.7138,6737.0715 3636.6737,6732.6923 C 3625.7270,6728.3147 3612.0444,6726.1255 3595.6259,6726.1246 C 3581.3954,6726.1255 3569.3547,6727.7674 3559.5038,6731.0504 C 3550.7463,6734.3350 3541.9895,6742.5446 3533.2332,6755.6791 C 3532.1380,6757.8691 3531.0434,6760.0583 3529.9493,6762.2467 C 3528.8542,6763.3421 3527.7596,6764.9840 3526.6655,6767.1725 L 3454.4213,6890.3160 L 3740.1143,6890.3160 L 3740.1143,6890.3160 M 4294.7220,7547.0815 L 4294.7220,6479.8376 L 5115.6789,6479.8376 C 5206.5306,6480.9332 5283.7004,6513.7715 5347.1888,6578.3524 C 5411.7696,6641.8406 5444.0605,6719.0105 5444.0617,6809.8622 L 5444.0617,7547.0815 L 5197.7746,7547.0815 L 5197.7746,6808.2203 C 5197.7737,6787.4235 5190.1114,6769.3625 5174.7878,6754.0372 C 5159.4624,6738.7134 5142.4960,6729.9566 5123.8885,6727.7665 C 5122.7930,6727.7674 5121.1511,6727.7674 5118.9627,6727.7665 C 5117.8673,6727.7674 5116.7727,6727.7674 5115.6789,6727.7665 L 4541.0091,6726.1246 L 4541.0091,7547.0815 L 4294.7220,7547.0815 L 4294.7220,7547.0815 M 5939.8427,6726.1246 L 5529.3642,6726.1246 L 5529.3642,6479.8376 L 6596.6082,6479.8376 L 6596.6082,6726.1246 L 6186.1298,6726.1246 L 6186.1298,7547.0815 L 5939.8427,7547.0815 L 5939.8427,6726.1246 L 5939.8427,6726.1246 M 7091.1065,6726.1246 L 6680.6280,6726.1246 L 6680.6280,6479.8376 L 7747.8720,6479.8376 L 7747.8720,6726.1246 L 7337.3935,6726.1246 L 7337.3935,7547.0815 L 7091.1065,7547.0815 L 7091.1065,6726.1246 L 7091.1065,6726.1246"
     style="font-size:1641.9138;font-style:normal;font-variant:normal;font-weight:normal;font-stretch:normal;fill:#ff9900;fill-opacity:1.0000000;stroke:none;stroke-width:1.0000000px;stroke-linecap:butt;stroke-linejoin:miter;stroke-opacity:1.0000000;font-family:ShowShifter Body;text-anchor:start;writing-mode:lr-tb" />
  <path
     style="fill:#ff9900;fill-opacity:1.0000000;fill-rule:evenodd;stroke:none;stroke-width:1.0000000px;stroke-linecap:butt;stroke-linejoin:miter;stroke-opacity:1.0000000"
     d="M 1143.0634,6372.9486 L 1767.3492,6012.6509 C 1868.3592,5954.3327 1992.1147,5951.3727 2100.9653,6014.2176 L 2822.1943,6434.4789 C 2843.4745,6446.7651 2836.6743,6470.5068 2810.4899,6470.5068 L 2380.4479,6470.5068 L 1987.6179,6244.0335 C 1951.4622,6223.1590 1907.4674,6224.0333 1871.4561,6244.8245 L 1287.5812,6581.7099 C 1256.7982,6599.4825 1232.0001,6636.0953 1232.0001,6682.2128 L 1232.0001,7351.6209 C 1232.0001,7392.3474 1251.6390,7433.0799 1290.4027,7455.4601 L 1886.9546,7799.7632 C 1922.4545,7820.2590 1967.2058,7819.7161 2002.7972,7799.1674 L 2575.1118,7469.0908 C 2609.9824,7448.9583 2633.4743,7411.5307 2633.4743,7363.9309 L 2633.4743,7157.3301 L 2376.4315,7157.3301 L 2376.4315,6916.3393 L 2878.4953,6916.3393 L 2878.4953,7388.3349 C 2878.4953,7511.4465 2819.6044,7618.0155 2713.2964,7679.3925 L 2097.2634,8037.0231 C 1997.6403,8094.5405 1875.3130,8096.4253 1767.5495,8034.2080 L 1148.6569,7676.1737 C 1045.6469,7616.7009 986.34256,7506.2419 986.34256,7389.0120 L 986.34256,6649.0407 C 986.34256,6529.1888 1057.7861,6422.1835 1143.0634,6372.9486 z "
     id="path1618"
     sodipodi:nodetypes="cccccccccccccccccccccccccccc" />
  <path
     id="text1620"
     d="M 5541.1340,7954.9692 L 5510.9262,7923.9869 C 5557.9160,7867.7027 5604.6477,7826.1347 5651.1215,7799.2827 C 5697.5948,7772.4320 5737.8718,7759.0063 5771.9528,7759.0056 C 5784.8617,7759.0063 5794.9310,7762.3627 5802.1606,7769.0749 C 5809.9058,7775.2720 5813.7786,7784.5667 5813.7790,7796.9590 C 5813.7786,7811.9345 5811.9713,7827.4257 5808.3571,7843.4326 C 5805.2585,7858.9244 5794.9310,7896.1032 5777.3747,7954.9692 C 5856.3794,7875.9647 5910.3403,7827.1675 5939.2577,7808.5774 C 5987.7962,7777.0793 6032.2043,7761.3299 6072.4820,7761.3293 C 6098.8163,7761.3299 6121.0204,7773.7229 6139.0942,7798.5082 C 6157.1665,7823.2947 6166.2030,7860.7317 6166.2037,7910.8193 C 6166.2030,8035.7820 6127.2168,8154.5477 6049.2452,8267.1168 C 5971.2723,8379.6862 5885.0380,8435.9709 5790.5422,8435.9709 C 5753.3630,8435.9709 5716.1842,8425.9016 5679.0056,8405.7630 L 5613.1680,8661.3678 C 5609.0369,8676.8587 5606.9714,8689.5098 5606.9716,8699.3212 C 5606.9714,8718.4267 5614.2006,8732.1106 5628.6592,8740.3729 C 5650.8630,8753.2819 5697.5948,8763.8675 5768.8546,8772.1298 L 5758.7853,8810.8578 C 5675.6489,8804.1446 5610.3278,8800.7882 5562.8217,8800.7885 C 5513.7661,8800.7882 5450.2523,8804.1446 5372.2800,8810.8578 L 5382.3492,8772.1298 C 5421.5936,8767.9985 5449.9941,8757.1547 5467.5508,8739.5983 C 5485.6238,8722.0413 5500.0822,8690.8008 5510.9262,8645.8766 L 5651.1215,8057.9857 C 5677.4562,7948.5150 5690.6237,7887.5831 5690.6240,7875.1896 C 5690.6237,7861.7644 5684.1691,7855.0516 5671.2600,7855.0510 C 5648.5394,7855.0516 5605.1641,7888.3576 5541.1340,7954.9692 M 5697.5951,8320.5615 C 5738.3882,8361.3550 5780.2144,8381.7517 5823.0738,8381.7517 C 5885.0380,8381.7517 5939.2572,8333.4709 5985.7313,8236.9090 C 6032.7206,8140.3475 6056.2156,8046.1095 6056.2163,7954.1947 C 6056.2156,7924.7619 6049.5027,7902.5579 6036.0777,7887.5825 C 6023.1677,7872.0919 6005.6111,7864.3463 5983.4076,7864.3457 C 5958.6212,7864.3463 5930.7370,7876.4811 5899.7552,7900.7501 C 5851.7320,7938.4458 5815.0695,7975.8828 5789.7677,8013.0612 C 5771.6942,8039.9130 5754.6539,8086.3866 5738.6467,8152.4820 L 5697.5951,8320.5615 M 6369.9130,8414.2832 L 6254.5036,8414.2832 L 6308.7227,8205.9266 C 6335.0575,8103.6850 6358.0361,8006.6070 6377.6586,7914.6921 C 6382.3056,7891.9722 6384.6293,7877.7720 6384.6296,7872.0913 C 6384.6293,7859.6989 6378.9492,7853.5025 6367.5893,7853.5019 C 6359.8434,7853.5025 6347.9669,7858.9244 6331.9595,7869.7677 C 6315.9517,7880.0957 6287.0349,7906.1725 6245.2088,7947.9982 L 6221.1975,7920.8886 C 6270.7691,7867.7027 6320.0827,7827.9420 6369.1384,7801.6064 C 6418.7099,7774.7556 6456.6633,7761.3299 6482.9987,7761.3293 C 6492.2930,7761.3299 6499.5222,7763.6536 6504.6864,7768.3003 C 6510.3661,7772.4320 6513.2061,7777.8539 6513.2065,7784.5661 C 6513.2061,7791.2796 6509.8497,7809.0944 6503.1373,7838.0107 L 6469.8312,7976.6569 C 6521.9844,7894.5541 6580.8509,7824.3274 6646.4308,7765.9767 C 6677.9290,7738.0932 6704.2640,7724.1511 6725.4359,7724.1504 C 6740.9265,7724.1511 6753.8358,7729.3148 6764.1639,7739.6416 C 6774.4907,7749.4534 6779.6544,7761.0718 6779.6551,7774.4968 C 6779.6544,7788.4395 6774.4907,7800.3161 6764.1639,7810.1266 C 6754.3522,7819.9382 6729.3081,7831.5566 6689.0316,7844.9818 C 6650.8194,7857.8916 6619.5789,7873.3828 6595.3099,7891.4553 C 6571.5562,7909.5289 6545.2212,7937.1548 6516.3048,7974.3332 C 6487.9038,8011.5125 6468.0235,8044.0440 6456.6637,8071.9278 C 6445.3031,8099.2959 6428.0046,8163.3261 6404.7682,8264.0186 L 6369.9130,8414.2832 M 7087.9299,7762.8784 C 7138.5339,7762.8791 7180.6183,7783.0176 7214.1831,7823.2941 C 7247.7467,7863.5717 7264.5288,7919.5982 7264.5295,7991.3736 C 7264.5288,8106.0087 7224.2518,8209.0251 7143.6982,8300.4229 C 7063.1435,8391.3046 6977.9420,8436.7454 6888.0935,8436.7454 C 6832.8413,8436.7454 6788.1750,8418.6724 6754.0946,8382.5263 C 6720.5302,8346.3802 6703.7481,8297.0666 6703.7482,8234.5853 C 6703.7481,8126.1472 6734.7305,8025.9709 6796.6954,7934.0561 C 6874.6675,7819.9382 6971.7455,7762.8791 7087.9299,7762.8784 M 7022.0923,7820.9704 C 6978.2002,7820.9710 6935.5994,7852.4697 6894.2900,7915.4667 C 6853.4962,7977.9483 6833.0995,8064.4407 6833.0997,8174.9442 C 6833.0995,8242.0729 6845.7506,8295.0011 6871.0532,8333.7290 C 6889.6423,8362.1296 6914.4282,8376.3298 6945.4109,8376.3298 C 6988.7858,8376.3298 7028.2883,8349.4784 7063.9185,8295.7756 C 7109.3588,8226.0654 7132.0792,8139.5729 7132.0798,8036.2980 C 7132.0792,7958.8425 7121.4936,7903.5906 7100.3229,7870.5422 C 7079.6674,7837.4949 7053.5906,7820.9710 7022.0923,7820.9704 M 7674.2717,7429.8177 C 7690.2787,7429.8187 7703.4462,7435.2406 7713.7742,7446.0835 C 7724.1012,7456.4119 7729.2649,7469.8376 7729.2654,7486.3606 C 7729.2649,7509.0819 7721.2611,7529.2204 7705.2541,7546.7762 C 7689.7624,7563.8174 7672.4639,7572.3375 7653.3586,7572.3367 C 7637.3505,7572.3375 7624.1830,7566.9156 7613.8560,7556.0709 C 7603.5281,7545.2280 7598.3644,7531.0277 7598.3648,7513.4702 C 7598.3644,7490.2343 7605.8518,7470.6121 7620.8270,7454.6036 C 7636.3178,7438.0806 7654.1327,7429.8187 7674.2717,7429.8177 M 7365.9969,7948.7728 L 7336.5636,7915.4667 C 7380.4551,7867.9609 7427.7032,7830.0075 7478.3080,7801.6064 C 7529.4287,7773.2065 7568.6730,7759.0063 7596.0411,7759.0056 C 7607.4009,7759.0063 7616.6956,7762.6209 7623.9253,7769.8495 C 7631.6704,7776.5629 7635.5432,7785.3413 7635.5437,7796.1845 C 7635.5432,7809.6108 7627.2813,7846.2733 7610.7578,7906.1720 L 7476.7589,8394.9192 C 7431.8342,8561.1912 7382.2624,8673.5023 7328.0434,8731.8527 C 7273.8242,8790.7189 7210.3103,8820.1521 7137.5017,8820.1525 C 7101.3557,8820.1521 7073.7298,8813.1811 7054.6238,8799.2394 C 7035.0018,8785.8133 7025.1907,8770.3222 7025.1906,8752.7658 C 7025.1907,8740.3726 7029.8381,8729.7869 7039.1326,8721.0089 C 7047.9111,8712.2302 7058.7550,8707.8411 7071.6641,8707.8414 C 7086.1227,8707.8411 7106.7776,8714.5539 7133.6289,8727.9799 C 7164.6114,8743.4708 7188.3645,8751.2164 7204.8884,8751.2167 C 7232.7726,8751.2164 7255.2348,8738.3071 7272.2751,8712.4887 C 7289.3154,8687.1862 7314.8758,8605.5993 7348.9566,8467.7278 C 7384.0697,8326.7580 7413.7612,8212.1233 7438.0309,8123.8233 L 7492.2501,7928.6342 C 7502.5773,7897.1360 7507.7410,7877.5138 7507.7413,7869.7677 C 7507.7410,7865.6372 7505.9337,7862.0226 7502.3194,7858.9238 C 7499.2209,7855.8261 7495.8644,7854.2770 7492.2501,7854.2765 C 7472.1113,7854.2770 7430.0269,7885.7758 7365.9969,7948.7728 M 8088.6612,8219.8687 L 8114.2216,8253.9493 C 7987.7098,8374.2643 7879.2715,8434.4217 7788.9065,8434.4218 C 7752.2438,8434.4217 7724.1015,8422.0288 7704.4795,8397.2429 C 7685.3736,8372.4570 7675.8207,8332.6963 7675.8208,8277.9607 C 7675.8207,8167.4571 7709.3849,8057.4697 7776.5136,7947.9982 C 7851.9037,7823.5529 7942.0108,7761.3299 8046.8349,7761.3293 C 8083.4969,7761.3299 8111.3810,7770.6247 8130.4874,7789.2134 C 8150.1090,7807.2871 8159.9200,7832.3312 8159.9207,7864.3457 C 8159.9200,7897.9105 8148.3017,7930.9584 8125.0655,7963.4894 C 8101.8281,7996.0213 8060.2601,8029.8437 8000.3613,8064.9567 C 7970.4113,8081.9974 7906.3811,8112.7216 7808.2705,8157.1294 C 7803.6229,8185.0137 7801.2992,8211.6069 7801.2995,8236.9090 C 7801.2992,8273.5716 7806.9793,8299.1321 7818.3398,8313.5904 C 7830.2161,8328.0490 7847.2564,8335.2782 7869.4607,8335.2781 C 7890.6317,8335.2782 7913.8685,8329.3399 7939.1711,8317.4632 C 7973.2513,8301.4558 8023.0813,8268.9243 8088.6612,8219.8687 M 7817.5652,8107.5575 C 7900.7010,8070.3790 7963.1821,8030.3601 8005.0087,7987.5008 C 8033.4087,7957.5516 8047.6090,7927.8601 8047.6095,7898.4264 C 8047.6090,7876.2229 8041.6707,7858.6662 8029.7946,7845.7563 C 8018.4339,7832.3312 8003.4591,7825.6183 7984.8701,7825.6178 C 7965.7639,7825.6183 7947.1745,7832.8476 7929.1018,7847.3054 C 7904.8319,7866.4118 7884.4352,7895.3287 7867.9116,7934.0561 C 7844.1582,7990.8576 7827.3760,8048.6913 7817.5652,8107.5575 M 8647.1188,8246.2037 L 8663.3845,8291.1282 C 8540.4873,8387.6900 8436.6963,8435.9709 8352.0115,8435.9709 C 8307.0868,8435.9709 8274.2971,8419.9633 8253.6424,8387.9482 C 8233.5037,8355.9331 8223.4344,8315.3978 8223.4346,8266.3423 C 8223.4344,8184.7555 8245.1221,8100.8450 8288.4976,8014.6103 C 8331.8727,7928.3765 8384.5427,7862.2808 8446.5078,7816.3230 C 8495.0465,7780.6939 8549.7820,7762.8791 8610.7145,7762.8784 C 8648.9255,7762.8791 8677.8424,7770.1083 8697.4652,7784.5661 C 8717.0867,7799.0252 8726.8978,7816.5818 8726.8984,7837.2362 C 8726.8978,7853.2443 8721.7341,7866.4118 8711.4072,7876.7387 C 8701.0792,7886.5503 8686.6207,7891.4559 8668.0319,7891.4553 C 8649.9583,7891.4559 8626.7215,7883.1939 8598.3215,7866.6694 C 8568.8877,7849.1133 8544.3600,7840.3350 8524.7383,7840.3344 C 8499.4356,7840.3350 8474.1334,7851.9534 8448.8315,7875.1896 C 8424.0452,7897.9105 8400.2921,7942.3186 8377.5720,8008.4139 C 8354.8513,8074.5100 8343.4911,8140.8639 8343.4913,8207.4757 C 8343.4911,8256.5313 8353.0440,8294.4847 8372.1500,8321.3360 C 8386.0918,8341.9910 8405.7140,8352.3185 8431.0166,8352.3184 C 8491.4318,8352.3185 8563.4658,8316.9470 8647.1188,8246.2037 M 8980.9540,7643.5962 L 9104.1090,7596.3481 L 9048.3407,7813.2248 L 9208.6746,7813.2248 L 9196.2817,7868.2185 L 9035.9478,7868.2185 L 8967.7865,8127.6961 C 8946.6149,8205.6686 8936.0293,8259.8878 8936.0296,8290.3536 C 8936.0293,8304.2958 8938.8693,8314.3651 8944.5497,8320.5615 C 8950.7459,8326.7580 8959.0079,8329.8563 8969.3356,8329.8562 C 8985.3429,8329.8563 9009.8706,8320.3034 9042.9188,8301.1975 C 9086.2937,8275.8953 9127.6035,8247.2366 9166.8484,8215.2213 L 9196.2817,8250.8511 C 9083.1955,8336.0527 9007.5469,8388.2064 8969.3356,8407.3122 C 8931.1237,8426.4180 8900.3996,8435.9709 8877.1630,8435.9709 C 8858.0570,8435.9709 8842.8240,8428.9998 8831.4640,8415.0578 C 8820.6200,8401.1157 8815.1981,8378.3953 8815.1982,8346.8965 C 8815.1981,8309.7177 8825.0091,8252.9167 8844.6315,8176.4933 L 8924.4112,7868.2185 L 8798.9325,7868.2185 L 8812.8746,7813.2248 L 8937.5787,7813.2248 L 8980.9540,7643.5962"
     style="font-size:1586.2985;font-style:italic;font-variant:normal;font-weight:normal;font-stretch:normal;fill:#666666;fill-opacity:1.0000000;stroke:none;stroke-width:1.0000000px;stroke-linecap:butt;stroke-linejoin:miter;stroke-opacity:1.0000000;font-family:Monotype Corsiva;text-anchor:start;writing-mode:lr-tb" />
  <path
     sodipodi:nodetypes="ccccc"
     id="path1638"
     d="M 9236.7238,8193.1203 C 9413.1361,8055.1979 10242.968,7434.3751 10442.567,6686.4915 C 10603.489,6085.9201 10699.109,4927.2891 7242.4699,5853.4927 C 5856.7540,6224.7942 3106.7586,6225.9666 4619.3397,5352.6773 C 5040.4478,5109.5504 5451.9757,4941.8240 5636.6755,4850.0232"
     style="fill:none;fill-opacity:0.75000000;fill-rule:evenodd;stroke:#cccccc;stroke-width:50.132206;stroke-linecap:butt;stroke-linejoin:miter;stroke-miterlimit:4.0000000;stroke-opacity:1.0000000" />
  <path
     sodipodi:nodetypes="ccccccccccc"
     id="path1496"
     d="M 89973.371,46153.519 L 90033.088,46153.519 C 90059.421,46153.519 90071.831,46171.673 90071.831,46192.262 L 90071.831,46620.755 C 90071.831,46673.872 90060.291,46722.212 90034.890,46766.208 L 89867.261,47053.499 C 89845.993,47090.337 89812.622,47087.959 89792.726,47053.499 L 89632.149,46778.021 C 89600.898,46723.892 89601.911,46677.360 89635.067,46619.932 L 89869.210,46217.515 C 89893.698,46175.102 89930.631,46153.519 89973.371,46153.519 z "
     style="fill:#999999;fill-opacity:1.0000000;fill-rule:evenodd;stroke:none;stroke-width:1.0000000px;stroke-linecap:butt;stroke-linejoin:miter;stroke-opacity:1.0000000" />
  <rect
     y="46316.578"
     x="90115.188"
     height="153.90060"
     width="183.48857"
     id="rect1498"
     style="fill:#ffbe00;fill-opacity:1.0000000;stroke:none;stroke-opacity:1.0000000" />
  <path
     sodipodi:nodetypes="cccccc"
     id="path1500"
     d="M 90110.089,46719.234 L 90296.126,46719.234 L 90394.272,46889.227 C 90394.272,46951.118 90299.143,47016.811 90209.479,47016.811 C 90113.283,47016.811 90015.797,46948.453 90015.797,46884.883 L 90110.089,46719.234 z "
     style="fill:#ffbe00;fill-opacity:1.0000000;fill-rule:evenodd;stroke:none;stroke-width:1.0000000px;stroke-linecap:butt;stroke-linejoin:miter;stroke-opacity:1.0000000" />
  <path
     sodipodi:nodetypes="cccccccccc"
     id="path1502"
     d="M 90120.283,46278.351 L 90296.126,46278.351 L 90296.126,46183.984 C 90296.126,46138.788 90323.646,46108.879 90371.231,46108.879 L 90408.605,46108.879 C 90408.605,46035.572 90315.920,45934.910 90208.314,45934.910 C 90103.823,45934.910 90010.790,46024.822 90010.790,46107.760 L 90044.496,46107.760 C 90085.093,46107.760 90121.530,46139.129 90121.530,46184.169 L 90120.283,46278.351 z "
     style="fill:#ffbe00;fill-opacity:1.0000000;fill-rule:evenodd;stroke:none;stroke-width:1.0000000px;stroke-linecap:butt;stroke-linejoin:miter;stroke-opacity:1.0000000" />
  <path
     sodipodi:nodetypes="ccccccccccc"
     id="path1504"
     d="M 90482.704,46155.023 L 90383.592,46155.023 C 90357.259,46155.023 90344.849,46173.177 90344.849,46193.767 L 90344.849,46639.769 C 90344.849,46692.886 90356.389,46723.717 90381.790,46767.712 L 90577.142,47106.071 C 90583.031,47111.960 90592.519,47112.502 90596.232,47106.071 L 90812.984,46730.646 C 90823.785,46711.938 90822.371,46693.871 90812.984,46677.611 L 90526.313,46181.084 C 90517.592,46165.978 90505.017,46155.023 90482.704,46155.023 z "
     style="fill:#999999;fill-opacity:1.0000000;fill-rule:evenodd;stroke:none;stroke-width:1.0000000px;stroke-linecap:butt;stroke-linejoin:miter;stroke-opacity:1.0000000" />
  <rect
     y="46508.156"
     x="90114.336"
     height="166.51480"
     width="183.48857"
     id="rect1506"
     style="fill:#ffbe00;fill-opacity:1.0000000;stroke:none;stroke-opacity:1.0000000" />
  <rect
     transform="matrix(0.500000,-0.866025,0.866025,0.500000,0.000000,0.000000)"
     y="100913.55"
     x="4319.3726"
     height="13.131632"
     width="763.82343"
     id="rect1508"
     style="fill:#666666;fill-opacity:1.0000000;stroke:none;stroke-width:17.638889;stroke-miterlimit:4.0000000;stroke-opacity:1.0000000" />
  <rect
     y="-38358.719"
     x="-84967.758"
     height="370.60516"
     width="21556.871"
     id="rect1510"
     style="fill:#666666;fill-opacity:1.0000000;stroke:none;stroke-width:17.638889;stroke-miterlimit:4.0000000;stroke-opacity:1.0000000" />
  <rect
     transform="matrix(0.500000,-0.866025,0.866025,0.500000,0.000000,0.000000)"
     y="101360.19"
     x="3990.0828"
     height="13.131623"
     width="763.82294"
     id="rect1512"
     style="fill:#666666;fill-opacity:1.0000000;stroke:none;stroke-width:17.638889;stroke-miterlimit:4.0000000;stroke-opacity:1.0000000" />
  <path
     sodipodi:nodetypes="ccccccccccc"
     id="path1516"
     d="M 89877.785,46057.933 L 89937.502,46057.933 C 89963.835,46057.933 89976.245,46076.087 89976.245,46096.676 L 89976.245,46525.169 C 89976.245,46578.286 89964.705,46626.626 89939.304,46670.622 L 89771.675,46957.913 C 89750.407,46994.751 89717.036,46992.373 89697.140,46957.913 L 89536.563,46682.434 C 89505.312,46628.306 89506.325,46581.774 89539.481,46524.346 L 89773.624,46121.929 C 89798.112,46079.515 89835.045,46057.933 89877.785,46057.933 z "
     style="fill:#999999;fill-opacity:1.0000000;fill-rule:evenodd;stroke:none;stroke-width:1.0000000px;stroke-linecap:butt;stroke-linejoin:miter;stroke-opacity:1.0000000" />
  <rect
     y="46220.992"
     x="90019.602"
     height="153.90060"
     width="183.48857"
     id="rect1518"
     style="fill:#ffbe00;fill-opacity:1.0000000;stroke:none;stroke-opacity:1.0000000" />
  <path
     sodipodi:nodetypes="cccccc"
     id="path1520"
     d="M 90014.503,46623.647 L 90200.540,46623.647 L 90298.686,46793.641 C 90298.686,46855.531 90203.557,46921.225 90113.893,46921.225 C 90017.697,46921.225 89920.211,46852.866 89920.211,46789.297 L 90014.503,46623.647 z "
     style="fill:#ffbe00;fill-opacity:1.0000000;fill-rule:evenodd;stroke:none;stroke-width:1.0000000px;stroke-linecap:butt;stroke-linejoin:miter;stroke-opacity:1.0000000" />
  <path
     sodipodi:nodetypes="cccccccccc"
     id="path1522"
     d="M 90024.697,46182.765 L 90200.540,46182.765 L 90200.540,46088.397 C 90200.540,46043.202 90228.060,46013.293 90275.645,46013.293 L 90313.019,46013.293 C 90313.019,45939.985 90220.334,45839.324 90112.728,45839.324 C 90008.237,45839.324 89915.204,45929.235 89915.204,46012.173 L 89948.910,46012.173 C 89989.507,46012.173 90025.944,46043.543 90025.944,46088.582 L 90024.697,46182.765 z "
     style="fill:#ffbe00;fill-opacity:1.0000000;fill-rule:evenodd;stroke:none;stroke-width:1.0000000px;stroke-linecap:butt;stroke-linejoin:miter;stroke-opacity:1.0000000" />
  <path
     sodipodi:nodetypes="ccccccccccc"
     id="path1524"
     d="M 90387.118,46059.437 L 90288.006,46059.437 C 90261.673,46059.437 90249.263,46077.591 90249.263,46098.180 L 90249.263,46544.182 C 90249.263,46597.299 90260.803,46628.130 90286.204,46672.126 L 90481.556,47010.485 C 90487.445,47016.374 90496.933,47016.916 90500.646,47010.485 L 90717.398,46635.060 C 90728.199,46616.352 90726.785,46598.285 90717.398,46582.025 L 90430.727,46085.498 C 90422.006,46070.392 90409.431,46059.437 90387.118,46059.437 z "
     style="fill:#999999;fill-opacity:1.0000000;fill-rule:evenodd;stroke:none;stroke-width:1.0000000px;stroke-linecap:butt;stroke-linejoin:miter;stroke-opacity:1.0000000" />
  <rect
     y="46412.570"
     x="90018.750"
     height="166.51480"
     width="183.48857"
     id="rect1526"
     style="fill:#ffbe00;fill-opacity:1.0000000;stroke:none;stroke-opacity:1.0000000" />
  <rect
     transform="matrix(0.500000,-0.866025,0.866025,0.500000,0.000000,0.000000)"
     y="100782.98"
     x="4354.3594"
     height="13.131632"
     width="763.82343"
     id="rect1528"
     style="fill:#666666;fill-opacity:1.0000000;stroke:none;stroke-width:17.638889;stroke-miterlimit:4.0000000;stroke-opacity:1.0000000" />
  <rect
     y="-38454.305"
     x="-85063.344"
     height="370.60516"
     width="21556.871"
     id="rect1530"
     style="fill:#666666;fill-opacity:1.0000000;stroke:none;stroke-width:17.638889;stroke-miterlimit:4.0000000;stroke-opacity:1.0000000" />
  <rect
     transform="matrix(0.500000,-0.866025,0.866025,0.500000,0.000000,0.000000)"
     y="101229.62"
     x="4025.0696"
     height="13.131623"
     width="763.82294"
     id="rect1532"
     style="fill:#666666;fill-opacity:1.0000000;stroke:none;stroke-width:17.638889;stroke-miterlimit:4.0000000;stroke-opacity:1.0000000" />
  <g
     transform="matrix(0.304225,0.526932,-0.526932,0.304225,9579.877,1413.609)"
     id="g1576">
    <path
       sodipodi:nodetypes="ccccccccccc"
       id="path1547"
       d="M 1443.6183,7424.3988 L 1503.3353,7424.3988 C 1529.6683,7424.3988 1542.0783,7442.5529 1542.0783,7463.1422 L 1542.0783,7891.6353 C 1542.0783,7944.7524 1530.5383,7993.0922 1505.1373,8037.0882 L 1337.5083,8324.3790 C 1316.2403,8361.2171 1282.8693,8358.8394 1262.9733,8324.3790 L 1102.3963,8048.9007 C 1071.1453,7994.7725 1072.1583,7948.2405 1105.3143,7890.8123 L 1339.4573,7488.3954 C 1363.9453,7445.9817 1400.8783,7424.3988 1443.6183,7424.3988 z "
       style="fill:#999999;fill-opacity:1.0000000;fill-rule:evenodd;stroke:none;stroke-width:1.0000000px;stroke-linecap:butt;stroke-linejoin:miter;stroke-opacity:1.0000000" />
    <rect
       y="7587.4585"
       x="1585.4327"
       height="153.90060"
       width="183.48857"
       id="rect1549"
       style="fill:#ffbe00;fill-opacity:1.0000000;stroke:none;stroke-opacity:1.0000000" />
    <path
       sodipodi:nodetypes="cccccc"
       id="path1551"
       d="M 1580.3363,7990.1137 L 1766.3733,7990.1137 L 1864.5193,8160.1069 C 1864.5193,8221.9976 1769.3903,8287.6908 1679.7263,8287.6908 C 1583.5303,8287.6908 1486.0443,8219.3326 1486.0443,8155.7630 L 1580.3363,7990.1137 z "
       style="fill:#ffbe00;fill-opacity:1.0000000;fill-rule:evenodd;stroke:none;stroke-width:1.0000000px;stroke-linecap:butt;stroke-linejoin:miter;stroke-opacity:1.0000000" />
    <path
       sodipodi:nodetypes="cccccccccc"
       id="path1553"
       d="M 1590.5303,7549.2314 L 1766.3733,7549.2314 L 1766.3733,7454.8636 C 1766.3733,7409.6679 1793.8933,7379.7593 1841.4783,7379.7593 L 1878.8523,7379.7593 C 1878.8523,7306.4516 1786.1673,7205.7899 1678.5613,7205.7899 C 1574.0703,7205.7899 1481.0373,7295.7017 1481.0373,7378.6397 L 1514.7433,7378.6397 C 1555.3403,7378.6397 1591.7773,7410.0093 1591.7773,7455.0486 L 1590.5303,7549.2314 z "
       style="fill:#ffbe00;fill-opacity:1.0000000;fill-rule:evenodd;stroke:none;stroke-width:1.0000000px;stroke-linecap:butt;stroke-linejoin:miter;stroke-opacity:1.0000000" />
    <rect
       y="7779.0342"
       x="1584.5851"
       height="166.51480"
       width="183.48857"
       id="rect1557"
       style="fill:#ffbe00;fill-opacity:1.0000000;stroke:none;stroke-opacity:1.0000000" />
    <path
       sodipodi:nodetypes="ccccccccccc"
       id="path1574"
       d="M 1913.2157,7432.5517 L 1853.4987,7432.5517 C 1827.1657,7432.5517 1814.7557,7450.7058 1814.7557,7471.2951 L 1814.7557,7899.7882 C 1814.7557,7952.9053 1826.2957,8001.2451 1851.6967,8045.2411 L 2019.3257,8332.5319 C 2040.5937,8369.3700 2073.9647,8366.9923 2093.8607,8332.5319 L 2254.4377,8057.0536 C 2285.6887,8002.9254 2284.6757,7956.3934 2251.5197,7898.9652 L 2017.3767,7496.5483 C 1992.8887,7454.1346 1955.9557,7432.5517 1913.2157,7432.5517 z "
       style="fill:#999999;fill-opacity:1.0000000;fill-rule:evenodd;stroke:none;stroke-width:1.0000000px;stroke-linecap:butt;stroke-linejoin:miter;stroke-opacity:1.0000000" />
  </g>
</svg>
