<?xml version="1.0" encoding="UTF-8" standalone="no"?>
<svg
   xmlns:dc="http://purl.org/dc/elements/1.1/"
   xmlns:cc="http://web.resource.org/cc/"
   xmlns:rdf="http://www.w3.org/1999/02/22-rdf-syntax-ns#"
   xmlns:svg="http://www.w3.org/2000/svg"
   xmlns="http://www.w3.org/2000/svg"
   xmlns:xlink="http://www.w3.org/1999/xlink"
   xmlns:sodipodi="http://inkscape.sourceforge.net/DTD/sodipodi-0.dtd"
   xmlns:inkscape="http://www.inkscape.org/namespaces/inkscape"
   sodipodi:docbase="C:\Documents and Settings\Propriétaire\Bureau\Logo Gantt"
   sodipodi:docname="lément-abeille01.svg"
   inkscape:version="0.40+cvs"
   sodipodi:version="0.32"
   id="svg2"
   viewBox="0 0 11200 14900"
   height="149mm"
   width="112mm">
  <metadata
     id="metadata93">
    <rdf:RDF
       id="RDF95">
      <cc:Work
         id="Work97"
         rdf:about="">
        <dc:format
           id="format99">image/svg+xml</dc:format>
        <dc:type
           rdf:resource="http://purl.org/dc/dcmitype/StillImage"
           id="type101" />
      </cc:Work>
    </rdf:RDF>
  </metadata>
  <defs
     id="defs91">
    <linearGradient
       id="linearGradient2404">
      <stop
         style="stop-color:#cccccc;stop-opacity:1.0000000;"
         offset="0.00000000"
         id="stop2406" />
      <stop
         style="stop-color:#505050;stop-opacity:1.0000000;"
         offset="1.0000000"
         id="stop2408" />
    </linearGradient>
    <linearGradient
       id="linearGradient2398">
      <stop
         style="stop-color:#999999;stop-opacity:1;"
         offset="0"
         id="stop2400" />
      <stop
         style="stop-color:#999999;stop-opacity:0;"
         offset="1"
         id="stop2402" />
    </linearGradient>
    <linearGradient
       id="linearGradient2390">
      <stop
         style="stop-color:#999999;stop-opacity:1;"
         offset="0"
         id="stop2392" />
      <stop
         style="stop-color:#999999;stop-opacity:0;"
         offset="1"
         id="stop2394" />
    </linearGradient>
    <linearGradient
       inkscape:collect="always"
       xlink:href="#linearGradient2404"
       id="linearGradient2396"
       gradientTransform="scale(0.706371,1.415687)"
       x1="6511.9102"
       y1="2434.2158"
       x2="6511.9102"
       y2="668.44019"
       gradientUnits="userSpaceOnUse" />
    <linearGradient
       inkscape:collect="always"
       xlink:href="#linearGradient2404"
       id="linearGradient2416"
       gradientTransform="scale(0.706371,1.415687)"
       x1="9598.1045"
       y1="2465.2422"
       x2="9598.1055"
       y2="684.87341"
       gradientUnits="userSpaceOnUse" />
    <linearGradient
       inkscape:collect="always"
       xlink:href="#linearGradient2404"
       id="linearGradient2426"
       gradientUnits="userSpaceOnUse"
       gradientTransform="scale(0.706371,1.415687)"
       x1="6511.9102"
       y1="2434.2158"
       x2="6511.9102"
       y2="668.44019" />
    <linearGradient
       inkscape:collect="always"
       xlink:href="#linearGradient2404"
       id="linearGradient2428"
       gradientUnits="userSpaceOnUse"
       gradientTransform="scale(0.706371,1.415687)"
       x1="9598.1045"
       y1="2465.2422"
       x2="9598.1055"
       y2="684.87341" />
  </defs>
  <sodipodi:namedview
     inkscape:current-layer="svg2"
     inkscape:window-y="113"
     inkscape:window-x="3"
     inkscape:cy="372.23657"
     inkscape:cx="142.85854"
     inkscape:zoom="1.7801737"
     inkscape:window-height="788"
     inkscape:window-width="1056"
     inkscape:pageshadow="2"
     inkscape:pageopacity="0.0"
     borderopacity="1.0"
     bordercolor="#666666"
     pagecolor="#ffffff"
     id="base" />
  <path
     style="fill:#999999;fill-opacity:1.0000000;fill-rule:evenodd;stroke:none;stroke-width:1.0000000px;stroke-linecap:butt;stroke-linejoin:miter;stroke-opacity:1.0000000"
     d="M 88576.348,48069.145 L 88636.065,48069.145 C 88662.398,48069.145 88674.808,48087.299 88674.808,48107.888 L 88674.808,48536.381 C 88674.808,48589.498 88663.268,48637.838 88637.867,48681.834 L 88470.238,48969.125 C 88448.970,49005.963 88415.599,49003.585 88395.703,48969.125 L 88235.126,48693.647 C 88203.875,48639.518 88204.888,48592.986 88238.044,48535.558 L 88472.187,48133.141 C 88496.675,48090.728 88533.608,48069.145 88576.348,48069.145 z "
     id="path1496"
     sodipodi:nodetypes="ccccccccccc" />
  <rect
     style="fill:#ffbe00;fill-opacity:1.0000000;stroke:none;stroke-opacity:1.0000000"
     id="rect1498"
     width="183.48857"
     height="153.90060"
     x="88718.164"
     y="48232.203" />
  <path
     style="fill:#ffbe00;fill-opacity:1.0000000;fill-rule:evenodd;stroke:none;stroke-width:1.0000000px;stroke-linecap:butt;stroke-linejoin:miter;stroke-opacity:1.0000000"
     d="M 88713.066,48634.860 L 88899.103,48634.860 L 88997.249,48804.853 C 88997.249,48866.744 88902.120,48932.437 88812.456,48932.437 C 88716.260,48932.437 88618.774,48864.079 88618.774,48800.509 L 88713.066,48634.860 z "
     id="path1500"
     sodipodi:nodetypes="cccccc" />
  <path
     style="fill:#ffbe00;fill-opacity:1.0000000;fill-rule:evenodd;stroke:none;stroke-width:1.0000000px;stroke-linecap:butt;stroke-linejoin:miter;stroke-opacity:1.0000000"
     d="M 88723.260,48193.977 L 88899.103,48193.977 L 88899.103,48099.610 C 88899.103,48054.414 88926.623,48024.505 88974.208,48024.505 L 89011.582,48024.505 C 89011.582,47951.198 88918.897,47850.536 88811.291,47850.536 C 88706.800,47850.536 88613.767,47940.448 88613.767,48023.386 L 88647.473,48023.386 C 88688.070,48023.386 88724.507,48054.755 88724.507,48099.795 L 88723.260,48193.977 z "
     id="path1502"
     sodipodi:nodetypes="cccccccccc" />
  <path
     style="fill:#999999;fill-opacity:1.0000000;fill-rule:evenodd;stroke:none;stroke-width:1.0000000px;stroke-linecap:butt;stroke-linejoin:miter;stroke-opacity:1.0000000"
     d="M 89085.681,48070.649 L 88986.569,48070.649 C 88960.236,48070.649 88947.826,48088.803 88947.826,48109.393 L 88947.826,48555.395 C 88947.826,48608.512 88959.366,48639.343 88984.767,48683.338 L 89180.119,49021.697 C 89186.008,49027.586 89195.496,49028.128 89199.209,49021.697 L 89415.961,48646.272 C 89426.762,48627.564 89425.348,48609.497 89415.961,48593.237 L 89129.290,48096.710 C 89120.569,48081.604 89107.994,48070.649 89085.681,48070.649 z "
     id="path1504"
     sodipodi:nodetypes="ccccccccccc" />
  <rect
     style="fill:#ffbe00;fill-opacity:1.0000000;stroke:none;stroke-opacity:1.0000000"
     id="rect1506"
     width="183.48857"
     height="166.51480"
     x="88717.313"
     y="48423.781" />
  <rect
     style="fill:#666666;fill-opacity:1.0000000;stroke:none;stroke-width:17.638889;stroke-miterlimit:4.0000000;stroke-opacity:1.0000000"
     id="rect1508"
     width="763.82367"
     height="13.131637"
     x="1961.8809"
     y="100661.55"
     transform="matrix(0.500000,-0.866025,0.866025,0.500000,0.000000,0.000000)" />
  <rect
     style="fill:#666666;fill-opacity:1.0000000;stroke:none;stroke-width:17.638889;stroke-miterlimit:4.0000000;stroke-opacity:1.0000000"
     id="rect1510"
     width="21556.871"
     height="370.60516"
     x="-86364.781"
     y="-36443.094" />
  <rect
     style="fill:#666666;fill-opacity:1.0000000;stroke:none;stroke-width:17.638889;stroke-miterlimit:4.0000000;stroke-opacity:1.0000000"
     id="rect1512"
     width="763.82318"
     height="13.131628"
     x="1632.5909"
     y="101108.18"
     transform="matrix(0.500000,-0.866025,0.866025,0.500000,0.000000,0.000000)" />
  <path
     style="fill:#999999;fill-opacity:1.0000000;fill-rule:evenodd;stroke:none;stroke-width:1.0000000px;stroke-linecap:butt;stroke-linejoin:miter;stroke-opacity:1.0000000"
     d="M 88480.762,47973.559 L 88540.479,47973.559 C 88566.812,47973.559 88579.222,47991.713 88579.222,48012.302 L 88579.222,48440.795 C 88579.222,48493.912 88567.682,48542.252 88542.281,48586.248 L 88374.652,48873.539 C 88353.384,48910.377 88320.013,48907.999 88300.117,48873.539 L 88139.540,48598.060 C 88108.289,48543.932 88109.302,48497.400 88142.458,48439.972 L 88376.601,48037.555 C 88401.089,47995.141 88438.022,47973.559 88480.762,47973.559 z "
     id="path1516"
     sodipodi:nodetypes="ccccccccccc" />
  <rect
     style="fill:#ffbe00;fill-opacity:1.0000000;stroke:none;stroke-opacity:1.0000000"
     id="rect1518"
     width="183.48857"
     height="153.90060"
     x="88622.578"
     y="48136.617" />
  <path
     style="fill:#ffbe00;fill-opacity:1.0000000;fill-rule:evenodd;stroke:none;stroke-width:1.0000000px;stroke-linecap:butt;stroke-linejoin:miter;stroke-opacity:1.0000000"
     d="M 88617.480,48539.273 L 88803.517,48539.273 L 88901.663,48709.267 C 88901.663,48771.157 88806.534,48836.851 88716.870,48836.851 C 88620.674,48836.851 88523.188,48768.492 88523.188,48704.923 L 88617.480,48539.273 z "
     id="path1520"
     sodipodi:nodetypes="cccccc" />
  <path
     style="fill:#ffbe00;fill-opacity:1.0000000;fill-rule:evenodd;stroke:none;stroke-width:1.0000000px;stroke-linecap:butt;stroke-linejoin:miter;stroke-opacity:1.0000000"
     d="M 88627.674,48098.391 L 88803.517,48098.391 L 88803.517,48004.023 C 88803.517,47958.828 88831.037,47928.919 88878.622,47928.919 L 88915.996,47928.919 C 88915.996,47855.611 88823.311,47754.950 88715.705,47754.950 C 88611.214,47754.950 88518.181,47844.861 88518.181,47927.799 L 88551.887,47927.799 C 88592.484,47927.799 88628.921,47959.169 88628.921,48004.208 L 88627.674,48098.391 z "
     id="path1522"
     sodipodi:nodetypes="cccccccccc" />
  <path
     style="fill:#999999;fill-opacity:1.0000000;fill-rule:evenodd;stroke:none;stroke-width:1.0000000px;stroke-linecap:butt;stroke-linejoin:miter;stroke-opacity:1.0000000"
     d="M 88990.095,47975.063 L 88890.983,47975.063 C 88864.650,47975.063 88852.240,47993.217 88852.240,48013.806 L 88852.240,48459.808 C 88852.240,48512.925 88863.780,48543.756 88889.181,48587.752 L 89084.533,48926.111 C 89090.422,48932.000 89099.910,48932.542 89103.623,48926.111 L 89320.375,48550.686 C 89331.176,48531.978 89329.762,48513.911 89320.375,48497.651 L 89033.704,48001.124 C 89024.983,47986.018 89012.408,47975.063 88990.095,47975.063 z "
     id="path1524"
     sodipodi:nodetypes="ccccccccccc" />
  <rect
     style="fill:#ffbe00;fill-opacity:1.0000000;stroke:none;stroke-opacity:1.0000000"
     id="rect1526"
     width="183.48857"
     height="166.51480"
     x="88621.727"
     y="48328.195" />
  <rect
     style="fill:#666666;fill-opacity:1.0000000;stroke:none;stroke-width:17.638889;stroke-miterlimit:4.0000000;stroke-opacity:1.0000000"
     id="rect1528"
     width="763.82367"
     height="13.131637"
     x="1996.8679"
     y="100530.98"
     transform="matrix(0.500000,-0.866025,0.866025,0.500000,0.000000,0.000000)" />
  <rect
     style="fill:#666666;fill-opacity:1.0000000;stroke:none;stroke-width:17.638889;stroke-miterlimit:4.0000000;stroke-opacity:1.0000000"
     id="rect1530"
     width="21556.871"
     height="370.60516"
     x="-86460.367"
     y="-36538.680" />
  <rect
     style="fill:#666666;fill-opacity:1.0000000;stroke:none;stroke-width:17.638889;stroke-miterlimit:4.0000000;stroke-opacity:1.0000000"
     id="rect1532"
     width="763.82318"
     height="13.131628"
     x="1667.5779"
     y="100977.61"
     transform="matrix(0.500000,-0.866025,0.866025,0.500000,0.000000,0.000000)" />
  <g
     id="g1576"
     transform="matrix(2.471197,1.426747,-1.426747,2.471197,8888.078,-19703.37)">
    <path
       style="fill:#999999;fill-opacity:1.0000000;fill-rule:evenodd;stroke:none;stroke-width:1.0000000px;stroke-linecap:butt;stroke-linejoin:miter;stroke-opacity:1.0000000"
       d="M 1443.6183,7424.3988 L 1503.3353,7424.3988 C 1529.6683,7424.3988 1542.0783,7442.5529 1542.0783,7463.1422 L 1542.0783,7891.6353 C 1542.0783,7944.7524 1530.5383,7993.0922 1505.1373,8037.0882 L 1337.5083,8324.3790 C 1316.2403,8361.2171 1282.8693,8358.8394 1262.9733,8324.3790 L 1102.3963,8048.9007 C 1071.1453,7994.7725 1072.1583,7948.2405 1105.3143,7890.8123 L 1339.4573,7488.3954 C 1363.9453,7445.9817 1400.8783,7424.3988 1443.6183,7424.3988 z "
       id="path1547"
       sodipodi:nodetypes="ccccccccccc" />
    <rect
       style="fill:#ffbe00;fill-opacity:1.0000000;stroke:none;stroke-opacity:1.0000000"
       id="rect1549"
       width="183.48857"
       height="153.90060"
       x="1585.4327"
       y="7587.4585" />
    <path
       style="fill:#ffbe00;fill-opacity:1.0000000;fill-rule:evenodd;stroke:none;stroke-width:1.0000000px;stroke-linecap:butt;stroke-linejoin:miter;stroke-opacity:1.0000000"
       d="M 1580.3363,7990.1137 L 1766.3733,7990.1137 L 1864.5193,8160.1069 C 1864.5193,8221.9976 1769.3903,8287.6908 1679.7263,8287.6908 C 1583.5303,8287.6908 1486.0443,8219.3326 1486.0443,8155.7630 L 1580.3363,7990.1137 z "
       id="path1551"
       sodipodi:nodetypes="cccccc" />
    <path
       style="fill:#ffbe00;fill-opacity:1.0000000;fill-rule:evenodd;stroke:none;stroke-width:1.0000000px;stroke-linecap:butt;stroke-linejoin:miter;stroke-opacity:1.0000000"
       d="M 1590.5303,7549.2314 L 1766.3733,7549.2314 L 1766.3733,7454.8636 C 1766.3733,7409.6679 1793.8933,7379.7593 1841.4783,7379.7593 L 1878.8523,7379.7593 C 1878.8523,7306.4516 1786.1673,7205.7899 1678.5613,7205.7899 C 1574.0703,7205.7899 1481.0373,7295.7017 1481.0373,7378.6397 L 1514.7433,7378.6397 C 1555.3403,7378.6397 1591.7773,7410.0093 1591.7773,7455.0486 L 1590.5303,7549.2314 z "
       id="path1553"
       sodipodi:nodetypes="cccccccccc" />
    <rect
       style="fill:#ffbe00;fill-opacity:1.0000000;stroke:none;stroke-opacity:1.0000000"
       id="rect1557"
       width="183.48857"
       height="166.51480"
       x="1584.5851"
       y="7779.0342" />
    <path
       style="fill:#999999;fill-opacity:1.0000000;fill-rule:evenodd;stroke:none;stroke-width:1.0000000px;stroke-linecap:butt;stroke-linejoin:miter;stroke-opacity:1.0000000"
       d="M 1913.2157,7432.5517 L 1853.4987,7432.5517 C 1827.1657,7432.5517 1814.7557,7450.7058 1814.7557,7471.2951 L 1814.7557,7899.7882 C 1814.7557,7952.9053 1826.2957,8001.2451 1851.6967,8045.2411 L 2019.3257,8332.5319 C 2040.5937,8369.3700 2073.9647,8366.9923 2093.8607,8332.5319 L 2254.4377,8057.0536 C 2285.6887,8002.9254 2284.6757,7956.3934 2251.5197,7898.9652 L 2017.3767,7496.5483 C 1992.8887,7454.1346 1955.9557,7432.5517 1913.2157,7432.5517 z "
       id="path1574"
       sodipodi:nodetypes="ccccccccccc" />
  </g>
</svg>
