<?xml version="1.0" encoding="UTF-8" standalone="no"?>
<svg
   xmlns:dc="http://purl.org/dc/elements/1.1/"
   xmlns:cc="http://web.resource.org/cc/"
   xmlns:rdf="http://www.w3.org/1999/02/22-rdf-syntax-ns#"
   xmlns:svg="http://www.w3.org/2000/svg"
   xmlns="http://www.w3.org/2000/svg"
   xmlns:sodipodi="http://inkscape.sourceforge.net/DTD/sodipodi-0.dtd"
   xmlns:inkscape="http://www.inkscape.org/namespaces/inkscape"
   sodipodi:docbase="C:\Documents and Settings\Propriétaire\Bureau\Logo Gantt"
   sodipodi:docname="logo-idées.svg"
   inkscape:version="0.40+cvs"
   sodipodi:version="0.32"
   id="svg2"
   viewBox="0 0 11200 14900"
   height="149mm"
   width="112mm">
  <metadata
     id="metadata93">
    <rdf:RDF
       id="RDF95">
      <cc:Work
         id="Work97"
         rdf:about="">
        <dc:format
           id="format99">image/svg+xml</dc:format>
        <dc:type
           rdf:resource="http://purl.org/dc/dcmitype/StillImage"
           id="type101" />
      </cc:Work>
    </rdf:RDF>
  </metadata>
  <defs
     id="defs91" />
  <sodipodi:namedview
     inkscape:current-layer="svg2"
     inkscape:window-y="-4"
     inkscape:window-x="-4"
     inkscape:cy="267.92492"
     inkscape:cx="218.61370"
     inkscape:zoom="1.1885841"
     inkscape:window-height="913"
     inkscape:window-width="1280"
     inkscape:pageshadow="2"
     inkscape:pageopacity="0.0"
     borderopacity="1.0"
     bordercolor="#666666"
     pagecolor="#ffffff"
     id="base" />
  <path
     transform="matrix(0.161799,0.000000,0.000000,0.146176,8326.704,13796.05)"
     d="M -6716.8896 -30904.666 A 13010.444 6914.4443 0 1 1  -32737.778,-30904.666 A 13010.444 6914.4443 0 1 1  -6716.8896 -30904.666 z"
     sodipodi:ry="6914.4443"
     sodipodi:rx="13010.444"
     sodipodi:cy="-30904.666"
     sodipodi:cx="-19727.334"
     id="path1419"
     style="fill:none;fill-opacity:0.75000000;fill-rule:evenodd;stroke:#666666;stroke-width:139.77245;stroke-linecap:butt;stroke-linejoin:miter;stroke-miterlimit:4.0000000;stroke-opacity:1.0000000"
     sodipodi:type="arc" />
  <rect
     y="9872.9805"
     x="2789.4812"
     height="556.47052"
     width="4162.1001"
     id="rect2938"
     style="fill:#ffffff;fill-opacity:1.0000000;stroke:none;stroke-width:139.77245;stroke-miterlimit:4.0000000;stroke-opacity:1.0000000" />
  <path
     id="text3698"
     d="M 4557.1017,12694.288 L 4516.1283,12765.791 L 4516.1283,12894.335 L 4395.6182,12894.335 L 4395.6182,12732.048 L 4558.7085,12452.465 C 4572.6340,12427.828 4591.3800,12408.546 4614.9466,12394.620 C 4638.5128,12380.159 4665.8284,12372.929 4696.8935,12372.928 C 4728.4936,12372.929 4755.5414,12379.088 4778.0370,12391.406 C 4801.0674,12403.726 4820.6168,12424.346 4836.6852,12453.268 L 4998.1688,12732.048 L 4998.1688,12894.335 L 4877.6587,12894.335 L 4877.6587,12763.381 L 4837.4886,12694.288 L 4557.1017,12694.288 L 4557.1017,12694.288 M 4767.5927,12573.778 L 4732.2431,12512.720 C 4727.9580,12504.151 4722.8698,12498.795 4716.9785,12496.652 C 4711.6222,12494.510 4704.9272,12493.439 4696.8935,12493.438 C 4689.9304,12493.439 4684.0388,12494.242 4679.2187,12495.848 C 4674.9336,12497.456 4670.6488,12501.473 4666.3642,12507.899 C 4665.8284,12508.971 4665.2928,12510.042 4664.7574,12511.113 C 4664.2216,12511.649 4663.6860,12512.452 4663.1506,12513.523 L 4627.8010,12573.778 L 4767.5927,12573.778 L 4767.5927,12573.778 M 5038.9665,12895.139 L 5038.9665,12372.928 L 5440.6669,12372.928 C 5485.1213,12373.464 5522.8811,12389.532 5553.9464,12421.132 C 5585.5463,12452.197 5601.3465,12489.957 5601.3470,12534.412 L 5601.3470,12895.139 L 5480.8369,12895.139 L 5480.8369,12533.608 C 5480.8365,12523.432 5477.0873,12514.595 5469.5893,12507.096 C 5462.0905,12499.598 5453.7887,12495.313 5444.6839,12494.242 C 5444.1479,12494.242 5443.3445,12494.242 5442.2737,12494.242 C 5441.7377,12494.242 5441.2021,12494.242 5440.6669,12494.242 L 5159.4766,12493.438 L 5159.4766,12895.139 L 5038.9665,12895.139 L 5038.9665,12895.139 M 5843.9364,12493.438 L 5643.0862,12493.438 L 5643.0862,12372.928 L 6165.2968,12372.928 L 6165.2968,12493.438 L 5964.4466,12493.438 L 5964.4466,12895.139 L 5843.9364,12895.139 L 5843.9364,12493.438 L 5843.9364,12493.438 M 6407.2585,12493.438 L 6206.4083,12493.438 L 6206.4083,12372.928 L 6728.6188,12372.928 L 6728.6188,12493.438 L 6527.7686,12493.438 L 6527.7686,12895.139 L 6407.2585,12895.139 L 6407.2585,12493.438 L 6407.2585,12493.438"
     style="font-size:803.40082;font-style:normal;font-variant:normal;font-weight:normal;font-stretch:normal;fill:#ff9900;fill-opacity:1.0000000;stroke:none;stroke-width:1.0000000px;stroke-linecap:butt;stroke-linejoin:miter;stroke-opacity:1.0000000;font-family:ShowShifter Body;text-anchor:start;writing-mode:lr-tb" />
  <path
     sodipodi:nodetypes="cccccccccccccccccccccccccccc"
     id="path3702"
     d="M 3445.2672,12350.226 L 3853.6584,12114.553 C 3871.2695,12104.386 3892.9135,12104.879 3909.8768,12114.673 L 4318.4484,12350.734 C 4328.8610,12356.746 4325.5335,12368.362 4312.7214,12368.362 L 4102.2986,12368.362 L 3897.9912,12250.478 C 3887.3644,12244.342 3876.0136,12244.708 3866.6400,12250.121 L 3555.2188,12429.998 C 3546.3302,12435.130 3540.3545,12444.823 3540.3545,12455.745 L 3540.3545,12815.836 C 3540.3545,12825.403 3545.0506,12836.340 3554.8952,12842.025 L 3873.4573,13026.124 C 3883.0009,13031.634 3894.7440,13031.597 3904.5182,13025.954 L 4209.8014,12849.755 C 4219.7291,12844.022 4226.1062,12834.871 4226.1062,12821.514 L 4226.1062,12704.430 L 4100.3334,12704.430 L 4100.3334,12586.511 L 4345.9970,12586.511 L 4345.9970,12880.240 C 4345.9970,12897.061 4336.1857,12918.395 4321.8998,12926.643 L 3913.6863,13163.798 C 3894.4493,13174.904 3874.8865,13175.161 3855.2058,13163.798 L 3447.8986,12928.634 C 3432.6304,12919.818 3420.1523,12902.587 3420.1523,12880.101 L 3420.1523,12397.133 C 3420.1523,12373.313 3434.0986,12358.355 3445.2672,12350.226 z "
     style="fill:#ff9900;fill-opacity:1.0000000;fill-rule:evenodd;stroke:none;stroke-width:1.0000000px;stroke-linecap:butt;stroke-linejoin:miter;stroke-opacity:1.0000000" />
  <path
     transform="matrix(0.161799,0.000000,0.000000,0.146176,8329.526,17210.93)"
     d="M -6716.8896 -30904.666 A 13010.444 6914.4443 0 1 1  -32737.778,-30904.666 A 13010.444 6914.4443 0 1 1  -6716.8896 -30904.666 z"
     sodipodi:ry="6914.4443"
     sodipodi:rx="13010.444"
     sodipodi:cy="-30904.666"
     sodipodi:cx="-19727.334"
     id="path3704"
     style="fill:none;fill-opacity:0.75000000;fill-rule:evenodd;stroke:#cccccc;stroke-width:139.77245;stroke-linecap:butt;stroke-linejoin:miter;stroke-miterlimit:4.0000000;stroke-opacity:1.0000000"
     sodipodi:type="arc" />
  <rect
     y="13287.858"
     x="6679.9746"
     height="556.47052"
     width="106.72031"
     id="rect3706"
     style="fill:#ffffff;fill-opacity:1.0000000;stroke:none;stroke-width:139.77245;stroke-miterlimit:4.0000000;stroke-opacity:1.0000000" />
  <path
     id="text3708"
     d="M 5133.0100,13094.721 L 5118.2291,13079.561 C 5141.2215,13052.021 5164.0877,13031.681 5186.8277,13018.542 C 5209.5674,13005.404 5229.2753,12998.835 5245.9514,12998.835 C 5252.2678,12998.835 5257.1948,13000.477 5260.7323,13003.762 C 5264.5221,13006.794 5266.4171,13011.342 5266.4173,13017.405 C 5266.4171,13024.733 5265.5328,13032.313 5263.7643,13040.145 C 5262.2481,13047.726 5257.1948,13065.917 5248.6044,13094.721 C 5287.2619,13056.063 5313.6654,13032.187 5327.8150,13023.090 C 5351.5652,13007.678 5373.2944,12999.972 5393.0026,12999.972 C 5405.8882,12999.972 5416.7528,13006.036 5425.5964,13018.163 C 5434.4393,13030.292 5438.8610,13048.610 5438.8614,13073.118 C 5438.8610,13134.263 5419.7848,13192.376 5381.6327,13247.457 C 5343.4799,13302.538 5301.2849,13330.079 5255.0473,13330.079 C 5236.8553,13330.079 5218.6634,13325.152 5200.4716,13315.298 L 5168.2568,13440.367 C 5166.2354,13447.947 5165.2247,13454.137 5165.2248,13458.938 C 5165.2247,13468.287 5168.7620,13474.982 5175.8368,13479.025 C 5186.7013,13485.341 5209.5674,13490.521 5244.4354,13494.564 L 5239.5084,13513.514 C 5198.8292,13510.229 5166.8671,13508.587 5143.6220,13508.587 C 5119.6187,13508.587 5088.5409,13510.229 5050.3885,13513.514 L 5055.3154,13494.564 C 5074.5180,13492.542 5088.4146,13487.236 5097.0052,13478.646 C 5105.8484,13470.055 5112.9231,13454.769 5118.2291,13432.787 L 5186.8277,13145.128 C 5199.7135,13091.563 5206.1565,13061.748 5206.1566,13055.684 C 5206.1565,13049.115 5202.9982,13045.831 5196.6817,13045.830 C 5185.5643,13045.831 5164.3404,13062.127 5133.0100,13094.721 M 5209.5676,13273.608 C 5229.5280,13293.569 5249.9939,13303.549 5270.9653,13303.549 C 5301.2849,13303.549 5327.8147,13279.925 5350.5548,13232.676 C 5373.5471,13185.428 5385.0433,13139.317 5385.0436,13094.342 C 5385.0433,13079.940 5381.7587,13069.076 5375.1897,13061.748 C 5368.8728,13054.168 5360.2821,13050.379 5349.4178,13050.378 C 5337.2896,13050.379 5323.6457,13056.316 5308.4861,13068.191 C 5284.9880,13086.636 5267.0487,13104.954 5254.6683,13123.146 C 5245.8249,13136.285 5237.4869,13159.024 5229.6545,13191.365 L 5209.5676,13273.608 M 5538.5378,13319.467 L 5482.0671,13319.467 L 5508.5970,13217.516 C 5521.4828,13167.489 5532.7264,13119.988 5542.3278,13075.013 C 5544.6016,13063.896 5545.7386,13056.948 5545.7388,13054.168 C 5545.7386,13048.105 5542.9593,13045.073 5537.4008,13045.072 C 5533.6107,13045.073 5527.7994,13047.726 5519.9669,13053.031 C 5512.1342,13058.085 5497.9849,13070.844 5477.5191,13091.310 L 5465.7702,13078.045 C 5490.0260,13052.021 5514.1555,13032.566 5538.1588,13019.679 C 5562.4145,13006.541 5580.9854,12999.972 5593.8715,12999.972 C 5598.4193,12999.972 5601.9566,13001.109 5604.4835,13003.383 C 5607.2626,13005.404 5608.6522,13008.057 5608.6524,13011.341 C 5608.6522,13014.626 5607.0099,13023.343 5603.7255,13037.492 L 5587.4286,13105.333 C 5612.9475,13065.159 5641.7514,13030.797 5673.8401,13002.246 C 5689.2524,12988.602 5702.1383,12981.780 5712.4979,12981.780 C 5720.0775,12981.780 5726.3941,12984.307 5731.4478,12989.360 C 5736.5007,12994.161 5739.0274,12999.846 5739.0277,13006.414 C 5739.0274,13013.237 5736.5007,13019.048 5731.4478,13023.848 C 5726.6468,13028.649 5714.3926,13034.334 5694.6850,13040.903 C 5675.9875,13047.220 5660.7012,13054.800 5648.8262,13063.643 C 5637.2034,13072.487 5624.3175,13086.004 5610.1684,13104.196 C 5596.2716,13122.388 5586.5440,13138.306 5580.9856,13151.950 C 5575.4268,13165.341 5566.9625,13196.672 5555.5927,13245.941 L 5538.5378,13319.467 M 5889.8689,13000.730 C 5914.6298,13000.730 5935.2220,13010.584 5951.6456,13030.291 C 5968.0685,13050.000 5976.2801,13077.414 5976.2805,13112.534 C 5976.2801,13168.626 5956.5722,13219.032 5917.1568,13263.754 C 5877.7407,13308.223 5836.0510,13330.458 5792.0874,13330.458 C 5765.0521,13330.458 5743.1966,13321.614 5726.5208,13303.928 C 5710.0975,13286.241 5701.8859,13262.112 5701.8859,13231.539 C 5701.8859,13178.480 5717.0458,13129.463 5747.3657,13084.488 C 5785.5180,13028.649 5833.0190,13000.730 5889.8689,13000.730 M 5857.6541,13029.154 C 5836.1773,13029.155 5815.3325,13044.567 5795.1194,13075.392 C 5775.1587,13105.965 5765.1785,13148.286 5765.1786,13202.356 C 5765.1785,13235.203 5771.3688,13261.101 5783.7495,13280.051 C 5792.8453,13293.948 5804.9732,13300.896 5820.1333,13300.896 C 5841.3570,13300.896 5860.6859,13287.757 5878.1200,13261.480 C 5900.3543,13227.370 5911.4715,13185.049 5911.4718,13134.516 C 5911.4715,13096.616 5906.2919,13069.581 5895.9329,13053.410 C 5885.8260,13037.240 5873.0664,13029.155 5857.6541,13029.154 M 6176.7704,12837.760 C 6184.6028,12837.761 6191.0457,12840.414 6196.0993,12845.719 C 6201.1523,12850.773 6203.6790,12857.342 6203.6792,12865.427 C 6203.6790,12876.545 6199.7627,12886.399 6191.9303,12894.989 C 6184.3501,12903.327 6175.8858,12907.496 6166.5374,12907.496 C 6158.7046,12907.496 6152.2616,12904.843 6147.2085,12899.537 C 6142.1550,12894.232 6139.6284,12887.283 6139.6286,12878.692 C 6139.6284,12867.323 6143.2920,12857.721 6150.6195,12849.888 C 6158.1993,12841.804 6166.9162,12837.761 6176.7704,12837.760 M 6025.9292,13091.689 L 6011.5273,13075.392 C 6033.0037,13052.147 6056.1226,13033.576 6080.8839,13019.679 C 6105.8976,13005.783 6125.1001,12998.835 6138.4916,12998.835 C 6144.0500,12998.835 6148.5980,13000.604 6152.1355,13004.141 C 6155.9253,13007.425 6157.8203,13011.721 6157.8205,13017.026 C 6157.8203,13023.596 6153.7776,13041.535 6145.6925,13070.844 L 6080.1259,13309.992 C 6058.1439,13391.350 6033.8881,13446.305 6007.3583,13474.856 C 5980.8284,13503.660 5949.7506,13518.062 5914.1248,13518.062 C 5896.4383,13518.062 5882.9207,13514.651 5873.5720,13507.829 C 5863.9708,13501.259 5859.1702,13493.679 5859.1701,13485.089 C 5859.1702,13479.025 5861.4442,13473.845 5865.9920,13469.550 C 5870.2874,13465.255 5875.5934,13463.107 5881.9100,13463.107 C 5888.9846,13463.107 5899.0912,13466.392 5912.2298,13472.961 C 5927.3897,13480.541 5939.0123,13484.331 5947.0976,13484.331 C 5960.7415,13484.331 5971.7324,13478.014 5980.0704,13465.381 C 5988.4083,13453.000 6000.9153,13413.079 6017.5912,13345.618 C 6034.7724,13276.640 6049.3006,13220.548 6061.1760,13177.343 L 6087.7058,13081.835 C 6092.7590,13066.423 6095.2857,13056.821 6095.2858,13053.031 C 6095.2857,13051.010 6094.4013,13049.242 6092.6328,13047.725 C 6091.1167,13046.210 6089.4744,13045.452 6087.7058,13045.451 C 6077.8518,13045.452 6057.2596,13060.864 6025.9292,13091.689 M 6379.5343,13224.338 L 6392.0412,13241.014 C 6330.1380,13299.885 6277.0783,13329.321 6232.8621,13329.321 C 6214.9227,13329.321 6201.1525,13323.257 6191.5513,13311.129 C 6182.2026,13299.001 6177.5283,13279.546 6177.5284,13252.763 C 6177.5283,13198.693 6193.9515,13144.875 6226.7981,13091.310 C 6263.6871,13030.418 6307.7771,12999.972 6359.0684,12999.972 C 6377.0074,12999.972 6390.6513,13004.520 6400.0002,13013.615 C 6409.6011,13022.459 6414.4018,13034.713 6414.4021,13050.378 C 6414.4018,13066.802 6408.7168,13082.972 6397.3472,13098.890 C 6385.9770,13114.808 6365.6374,13131.358 6336.3285,13148.539 C 6321.6737,13156.877 6290.3432,13171.910 6242.3370,13193.639 C 6240.0629,13207.284 6238.9259,13220.296 6238.9260,13232.676 C 6238.9259,13250.616 6241.7052,13263.122 6247.2640,13270.197 C 6253.0751,13277.272 6261.4131,13280.809 6272.2779,13280.809 C 6282.6370,13280.809 6294.0069,13277.903 6306.3877,13272.092 C 6323.0634,13264.259 6347.4455,13248.342 6379.5343,13224.338 M 6246.8850,13169.384 C 6287.5639,13151.192 6318.1364,13131.610 6338.6025,13110.639 C 6352.4988,13095.985 6359.4471,13081.456 6359.4474,13067.054 C 6359.4471,13056.190 6356.5415,13047.599 6350.7304,13041.282 C 6345.1716,13034.713 6337.8443,13031.429 6328.7485,13031.428 C 6319.3997,13031.429 6310.3038,13034.966 6301.4607,13042.040 C 6289.5852,13051.389 6279.6050,13065.538 6271.5199,13084.488 C 6259.8971,13112.281 6251.6855,13140.580 6246.8850,13169.384 M 6652.7918,13237.224 L 6660.7508,13259.206 C 6600.6162,13306.455 6549.8305,13330.079 6508.3936,13330.079 C 6486.4116,13330.079 6470.3674,13322.246 6460.2608,13306.581 C 6450.4068,13290.916 6445.4798,13271.081 6445.4799,13247.078 C 6445.4798,13207.157 6456.0918,13166.099 6477.3157,13123.904 C 6498.5395,13081.709 6524.3113,13049.368 6554.6313,13026.880 C 6578.3817,13009.447 6605.1642,13000.730 6634.9789,13000.730 C 6653.6758,13000.730 6667.8251,13004.267 6677.4267,13011.341 C 6687.0276,13018.416 6691.8283,13027.007 6691.8286,13037.113 C 6691.8283,13044.946 6689.3016,13051.389 6684.2486,13056.442 C 6679.1950,13061.243 6672.1204,13063.643 6663.0247,13063.643 C 6654.1812,13063.643 6642.8113,13059.601 6628.9149,13051.515 C 6614.5128,13042.925 6602.5112,13038.630 6592.9101,13038.629 C 6580.5293,13038.630 6568.1487,13044.315 6555.7683,13055.684 C 6543.6402,13066.802 6532.0176,13088.531 6520.9005,13120.872 C 6509.7831,13153.213 6504.2245,13185.681 6504.2246,13218.274 C 6504.2245,13242.278 6508.8988,13260.849 6518.2475,13273.987 C 6525.0693,13284.094 6534.6706,13289.147 6547.0514,13289.147 C 6576.6130,13289.147 6611.8598,13271.839 6652.7918,13237.224 M 6816.1399,12942.364 L 6876.4006,12919.245 L 6849.1127,13025.364 L 6927.5653,13025.364 L 6921.5013,13052.273 L 6843.0488,13052.273 L 6809.6969,13179.238 C 6799.3375,13217.390 6794.1579,13243.920 6794.1580,13258.827 C 6794.1579,13265.649 6795.5475,13270.576 6798.3270,13273.608 C 6801.3588,13276.640 6805.4015,13278.156 6810.4549,13278.156 C 6818.2874,13278.156 6830.2890,13273.482 6846.4597,13264.133 C 6867.6834,13251.753 6887.8966,13237.730 6907.0994,13222.064 L 6921.5013,13239.498 C 6866.1674,13281.188 6829.1520,13306.707 6810.4549,13316.056 C 6791.7576,13325.404 6776.7240,13330.079 6765.3542,13330.079 C 6756.0055,13330.079 6748.5518,13326.668 6742.9933,13319.846 C 6737.6872,13313.024 6735.0343,13301.907 6735.0343,13286.494 C 6735.0343,13268.302 6739.8349,13240.509 6749.4363,13203.114 L 6788.4731,13052.273 L 6727.0754,13052.273 L 6733.8974,13025.364 L 6794.9160,13025.364 L 6816.1399,12942.364"
     style="font-size:776.18781;font-style:italic;font-variant:normal;font-weight:normal;font-stretch:normal;fill:#666666;fill-opacity:1.0000000;stroke:none;stroke-width:1.0000000px;stroke-linecap:butt;stroke-linejoin:miter;stroke-opacity:1.0000000;font-family:Monotype Corsiva;text-anchor:start;writing-mode:lr-tb" />
  <rect
     y="7719.5176"
     x="2804.7278"
     height="2241.1279"
     width="2629.8948"
     id="rect3732"
     style="fill:#ffffff;fill-opacity:1.0000000;stroke:none;stroke-width:139.77245;stroke-miterlimit:4.0000000;stroke-opacity:1.0000000" />
  <path
     id="text1334"
     d="M 4554.2790,9279.4125 L 4513.3055,9350.9152 L 4513.3055,9479.4593 L 4392.7954,9479.4593 L 4392.7954,9317.1723 L 4555.8858,9037.5888 C 4569.8112,9012.9517 4588.5572,8993.6701 4612.1238,8979.7440 C 4635.6900,8965.2833 4663.0056,8958.0527 4694.0707,8958.0522 C 4725.6708,8958.0527 4752.7186,8964.2121 4775.2142,8976.5304 C 4798.2446,8988.8497 4817.7940,9009.4703 4833.8625,9038.3922 L 4995.3460,9317.1723 L 4995.3460,9479.4593 L 4874.8359,9479.4593 L 4874.8359,9348.5050 L 4834.6659,9279.4125 L 4554.2790,9279.4125 L 4554.2790,9279.4125 M 4764.7700,9158.9024 L 4729.4204,9097.8439 C 4725.1352,9089.2747 4720.0470,9083.9187 4714.1557,9081.7759 C 4708.7994,9079.6339 4702.1044,9078.5627 4694.0707,9078.5623 C 4687.1076,9078.5627 4681.2160,9079.3661 4676.3959,9080.9725 C 4672.1108,9082.5797 4667.8260,9086.5967 4663.5415,9093.0235 C 4663.0056,9094.0951 4662.4700,9095.1663 4661.9347,9096.2371 C 4661.3988,9096.7731 4660.8632,9097.5765 4660.3279,9098.6473 L 4624.9782,9158.9024 L 4764.7700,9158.9024 L 4764.7700,9158.9024 M 5036.1437,9480.2627 L 5036.1437,8958.0522 L 5437.8441,8958.0522 C 5482.2985,8958.5883 5520.0583,8974.6563 5551.1236,9006.2562 C 5582.7235,9037.3215 5598.5237,9075.0813 5598.5243,9119.5357 L 5598.5243,9480.2627 L 5478.0142,9480.2627 L 5478.0142,9118.7323 C 5478.0137,9108.5563 5474.2645,9099.7189 5466.7666,9092.2201 C 5459.2677,9084.7221 5450.9659,9080.4373 5441.8611,9079.3657 C 5441.3251,9079.3661 5440.5217,9079.3661 5439.4509,9079.3657 C 5438.9149,9079.3661 5438.3793,9079.3661 5437.8441,9079.3657 L 5156.6538,9078.5623 L 5156.6538,9480.2627 L 5036.1437,9480.2627 L 5036.1437,9480.2627 M 5841.1137,9078.5623 L 5640.2635,9078.5623 L 5640.2635,8958.0522 L 6162.4740,8958.0522 L 6162.4740,9078.5623 L 5961.6238,9078.5623 L 5961.6238,9480.2627 L 5841.1137,9480.2627 L 5841.1137,9078.5623 L 5841.1137,9078.5623 M 6404.4357,9078.5623 L 6203.5855,9078.5623 L 6203.5855,8958.0522 L 6725.7961,8958.0522 L 6725.7961,9078.5623 L 6524.9459,9078.5623 L 6524.9459,9480.2627 L 6404.4357,9480.2627 L 6404.4357,9078.5623 L 6404.4357,9078.5623"
     style="font-size:803.40082;font-style:normal;font-variant:normal;font-weight:normal;font-stretch:normal;fill:#ff9900;fill-opacity:1.0000000;stroke:none;stroke-width:1.0000000px;stroke-linecap:butt;stroke-linejoin:miter;stroke-opacity:1.0000000;font-family:ShowShifter Body;text-anchor:start;writing-mode:lr-tb" />
  <path
     sodipodi:nodetypes="cccccccccccccccccccccccccccc"
     id="path5927"
     d="M 3442.4449,8935.3499 L 3850.8358,8699.6779 C 3868.4470,8689.5104 3890.0908,8690.0030 3907.0543,8699.7972 L 4315.6260,8935.8580 C 4326.0385,8941.8697 4322.7112,8953.4866 4309.8989,8953.4866 L 4099.4761,8953.4866 L 3895.1687,8835.6020 C 3884.5419,8829.4668 3873.1910,8829.8330 3863.8176,8835.2448 L 3552.3963,9015.1222 C 3543.5077,9020.2539 3537.5320,9029.9471 3537.5320,9040.8683 L 3537.5320,9400.9596 C 3537.5320,9410.5272 3542.2281,9421.4645 3552.0727,9427.1481 L 3870.6349,9611.2484 C 3880.1784,9616.7582 3891.9215,9616.7215 3901.6958,9611.0783 L 4206.9789,9434.8789 C 4216.9066,9429.1473 4223.2839,9419.9954 4223.2839,9406.6383 L 4223.2839,9289.5545 L 4097.5109,9289.5545 L 4097.5109,9171.6358 L 4343.1745,9171.6358 L 4343.1745,9465.3657 C 4343.1745,9482.1848 4333.3632,9503.5197 4319.0773,9511.7677 L 3910.8638,9748.9217 C 3891.6269,9760.0285 3872.0640,9760.2845 3852.3833,9748.9217 L 3445.0761,9513.7585 C 3429.8079,9504.9439 3417.3299,9487.7111 3417.3299,9465.2253 L 3417.3299,8982.2566 C 3417.3299,8958.4377 3431.2763,8943.4794 3442.4449,8935.3499 z "
     style="fill:#ff9900;fill-opacity:1.0000000;fill-rule:evenodd;stroke:none;stroke-width:1.0000000px;stroke-linecap:butt;stroke-linejoin:miter;stroke-opacity:1.0000000" />
  <path
     id="text1415"
     d="M 5130.1877,9679.8441 L 5115.4068,9664.6841 C 5138.3993,9637.1439 5161.2655,9616.8044 5184.0055,9603.6655 C 5206.7452,9590.5272 5226.4531,9583.9579 5243.1291,9583.9576 C 5249.4456,9583.9579 5254.3725,9585.6002 5257.9101,9588.8845 C 5261.6998,9591.9168 5263.5948,9596.4648 5263.5950,9602.5285 C 5263.5948,9609.8561 5262.7105,9617.4360 5260.9420,9625.2684 C 5259.4258,9632.8486 5254.3725,9651.0405 5245.7821,9679.8441 C 5284.4397,9641.1865 5310.8432,9617.3097 5324.9927,9608.2134 C 5348.7429,9592.8012 5370.4721,9585.0949 5390.1803,9585.0946 C 5403.0659,9585.0949 5413.9305,9591.1589 5422.7742,9603.2865 C 5431.6171,9615.4147 5436.0387,9633.7329 5436.0391,9658.2412 C 5436.0387,9719.3864 5416.9625,9777.4993 5378.8104,9832.5802 C 5340.6577,9887.6613 5298.4626,9915.2018 5252.2251,9915.2018 C 5234.0330,9915.2018 5215.8411,9910.2748 5197.6494,9900.4209 L 5165.4346,10025.490 C 5163.4131,10033.070 5162.4025,10039.260 5162.4026,10044.061 C 5162.4025,10053.410 5165.9398,10060.105 5173.0145,10064.148 C 5183.8790,10070.464 5206.7452,10075.644 5241.6131,10079.687 L 5236.6862,10098.637 C 5196.0069,10095.352 5164.0448,10093.710 5140.7997,10093.710 C 5116.7964,10093.710 5085.7186,10095.352 5047.5662,10098.637 L 5052.4932,10079.687 C 5071.6957,10077.665 5085.5923,10072.359 5094.1829,10063.769 C 5103.0262,10055.178 5110.1008,10039.892 5115.4068,10017.910 L 5184.0055,9730.2508 C 5196.8912,9676.6860 5203.3342,9646.8715 5203.3343,9640.8073 C 5203.3342,9634.2382 5200.1759,9630.9536 5193.8594,9630.9533 C 5182.7420,9630.9536 5161.5181,9647.2505 5130.1877,9679.8441 M 5206.7453,9858.7311 C 5226.7057,9878.6917 5247.1716,9888.6719 5268.1430,9888.6719 C 5298.4626,9888.6719 5324.9924,9865.0478 5347.7326,9817.7993 C 5370.7248,9770.5510 5382.2211,9724.4397 5382.2214,9679.4651 C 5382.2211,9665.0634 5378.9364,9654.1988 5372.3674,9646.8712 C 5366.0505,9639.2915 5357.4599,9635.5016 5346.5956,9635.5013 C 5334.4674,9635.5016 5320.8234,9641.4392 5305.6638,9653.3142 C 5282.1657,9671.7590 5264.2265,9690.0772 5251.8461,9708.2689 C 5243.0026,9721.4077 5234.6647,9744.1475 5226.8322,9776.4885 L 5206.7453,9858.7311 M 5535.7156,9904.5898 L 5479.2449,9904.5898 L 5505.7747,9802.6394 C 5518.6605,9752.6118 5529.9041,9705.1108 5539.5055,9660.1362 C 5541.7794,9649.0191 5542.9164,9642.0709 5542.9165,9639.2913 C 5542.9164,9633.2276 5540.1371,9630.1956 5534.5786,9630.1953 C 5530.7884,9630.1956 5524.9771,9632.8486 5517.1447,9638.1543 C 5509.3119,9643.2079 5495.1627,9655.9674 5474.6969,9676.4331 L 5462.9479,9663.1681 C 5487.2037,9637.1439 5511.3332,9617.6887 5535.3366,9604.8025 C 5559.5923,9591.6642 5578.1631,9585.0949 5591.0493,9585.0946 C 5595.5970,9585.0949 5599.1343,9586.2319 5601.6612,9588.5056 C 5604.4403,9590.5272 5605.8300,9593.1802 5605.8302,9596.4645 C 5605.8300,9599.7495 5604.1876,9608.4664 5600.9032,9622.6154 L 5584.6063,9690.4560 C 5610.1253,9650.2825 5638.9291,9615.9200 5671.0178,9587.3686 C 5686.4301,9573.7250 5699.3160,9566.9030 5709.6756,9566.9027 C 5717.2553,9566.9030 5723.5719,9569.4297 5728.6255,9574.4826 C 5733.6785,9579.2836 5736.2051,9584.9686 5736.2055,9591.5375 C 5736.2051,9598.3598 5733.6785,9604.1711 5728.6255,9608.9714 C 5723.8245,9613.7724 5711.5703,9619.4573 5691.8627,9626.0263 C 5673.1652,9632.3433 5657.8790,9639.9232 5646.0040,9648.7662 C 5634.3811,9657.6098 5621.4952,9671.1273 5607.3462,9689.3190 C 5593.4494,9707.5111 5583.7218,9723.4290 5578.1633,9737.0727 C 5572.6045,9750.4642 5564.1402,9781.7946 5552.7705,9831.0642 L 5535.7156,9904.5898 M 5887.0467,9585.8526 C 5911.8076,9585.8529 5932.3998,9595.7068 5948.8233,9615.4144 C 5965.2462,9635.1226 5973.4578,9662.5367 5973.4582,9697.6570 C 5973.4578,9753.7488 5953.7500,9804.1555 5914.3345,9848.8771 C 5874.9185,9893.3462 5833.2287,9915.5808 5789.2652,9915.5808 C 5762.2299,9915.5808 5740.3743,9906.7375 5723.6985,9889.0509 C 5707.2752,9871.3644 5699.0636,9847.2349 5699.0637,9816.6623 C 5699.0636,9763.6027 5714.2235,9714.5857 5744.5434,9669.6111 C 5782.6957,9613.7724 5830.1968,9585.8529 5887.0467,9585.8526 M 5854.8318,9614.2774 C 5833.3551,9614.2777 5812.5102,9629.6903 5792.2972,9660.5152 C 5772.3365,9691.0879 5762.3562,9733.4093 5762.3563,9787.4795 C 5762.3562,9820.3261 5768.5465,9846.2242 5780.9272,9865.1741 C 5790.0230,9879.0707 5802.1509,9886.0190 5817.3110,9886.0189 C 5838.5347,9886.0190 5857.8636,9872.8804 5875.2977,9846.6032 C 5897.5320,9812.4934 5908.6493,9770.1720 5908.6495,9719.6388 C 5908.6493,9681.7393 5903.4696,9654.7041 5893.1106,9638.5333 C 5883.0038,9622.3630 5870.2442,9614.2777 5854.8318,9614.2774 M 6173.9481,9422.8834 C 6181.7805,9422.8839 6188.2234,9425.5369 6193.2770,9430.8424 C 6198.3300,9435.8962 6200.8567,9442.4655 6200.8570,9450.5503 C 6200.8567,9461.6680 6196.9404,9471.5220 6189.1080,9480.1121 C 6181.5278,9488.4505 6173.0635,9492.6195 6163.7152,9492.6191 C 6155.8823,9492.6195 6149.4394,9489.9665 6144.3863,9484.6601 C 6139.3328,9479.3546 6136.8061,9472.4063 6136.8063,9463.8152 C 6136.8061,9452.4457 6140.4698,9442.8445 6147.7972,9435.0114 C 6155.3770,9426.9266 6164.0939,9422.8839 6173.9481,9422.8834 M 6023.1069,9676.8121 L 6008.7050,9660.5152 C 6030.1815,9637.2702 6053.3003,9618.6993 6078.0616,9604.8025 C 6103.0753,9590.9062 6122.2779,9583.9579 6135.6693,9583.9576 C 6141.2277,9583.9579 6145.7757,9585.7266 6149.3132,9589.2635 C 6153.1030,9592.5485 6154.9980,9596.8438 6154.9982,9602.1495 C 6154.9980,9608.7191 6150.9553,9626.6583 6142.8703,9655.9672 L 6077.3036,9895.1149 C 6055.3216,9976.4731 6031.0658,10031.428 6004.5360,10059.979 C 5978.0061,10088.783 5946.9283,10103.185 5911.3025,10103.185 C 5893.6160,10103.185 5880.0984,10099.774 5870.7497,10092.952 C 5861.1485,10086.382 5856.3479,10078.802 5856.3478,10070.212 C 5856.3479,10064.148 5858.6219,10058.968 5863.1698,10054.673 C 5867.4652,10050.378 5872.7711,10048.230 5879.0877,10048.230 C 5886.1624,10048.230 5896.2690,10051.515 5909.4075,10058.084 C 5924.5675,10065.664 5936.1901,10069.454 5944.2753,10069.454 C 5957.9193,10069.454 5968.9102,10063.137 5977.2482,10050.504 C 5985.5861,10038.123 5998.0930,9998.2022 6014.7690,9930.7407 C 6031.9501,9861.7631 6046.4784,9805.6715 6058.3537,9762.4656 L 6084.8836,9666.9581 C 6089.9367,9651.5458 6092.4634,9641.9445 6092.4635,9638.1543 C 6092.4634,9636.1332 6091.5791,9634.3646 6089.8106,9632.8483 C 6088.2944,9631.3326 6086.6521,9630.5746 6084.8836,9630.5743 C 6075.0295,9630.5746 6054.4373,9645.9872 6023.1069,9676.8121 M 6376.7120,9809.4614 L 6389.2189,9826.1373 C 6327.3157,9885.0083 6274.2561,9914.4438 6230.0398,9914.4438 C 6212.1005,9914.4438 6198.3302,9908.3798 6188.7290,9896.2519 C 6179.3803,9884.1240 6174.7060,9864.6688 6174.7061,9837.8862 C 6174.7060,9783.8160 6191.1293,9729.9983 6223.9758,9676.4331 C 6260.8648,9615.5410 6304.9549,9585.0949 6356.2461,9585.0946 C 6374.1851,9585.0949 6387.8290,9589.6429 6397.1779,9598.7385 C 6406.7789,9607.5821 6411.5795,9619.8363 6411.5798,9635.5013 C 6411.5795,9651.9248 6405.8946,9668.0954 6394.5249,9684.0130 C 6383.1547,9699.9312 6362.8152,9716.4807 6333.5062,9733.6618 C 6318.8514,9741.9999 6287.5210,9757.0335 6239.5147,9778.7625 C 6237.2406,9792.4066 6236.1036,9805.4188 6236.1038,9817.7993 C 6236.1036,9835.7386 6238.8830,9848.2455 6244.4417,9855.3201 C 6250.2529,9862.3948 6258.5908,9865.9321 6269.4556,9865.9321 C 6279.8147,9865.9321 6291.1846,9863.0264 6303.5654,9857.2151 C 6320.2411,9849.3825 6344.6233,9833.4646 6376.7120,9809.4614 M 6244.0627,9754.5067 C 6284.7417,9736.3149 6315.3141,9716.7334 6335.7802,9695.7620 C 6349.6766,9681.1076 6356.6249,9666.5794 6356.6251,9652.1772 C 6356.6249,9641.3129 6353.7192,9632.7223 6347.9082,9626.4053 C 6342.3493,9619.8363 6335.0220,9616.5517 6325.9263,9616.5514 C 6316.5775,9616.5517 6307.4815,9620.0890 6298.6384,9627.1633 C 6286.7630,9636.5122 6276.7827,9650.6615 6268.6976,9669.6111 C 6257.0748,9697.4045 6248.8632,9725.7030 6244.0627,9754.5067 M 6649.9695,9822.3473 L 6657.9285,9844.3292 C 6597.7939,9891.5776 6547.0082,9915.2018 6505.5713,9915.2018 C 6483.5893,9915.2018 6467.5451,9907.3692 6457.4386,9891.7039 C 6447.5846,9876.0387 6442.6576,9856.2045 6442.6576,9832.2012 C 6442.6576,9792.2802 6453.2695,9751.2222 6474.4935,9709.0269 C 6495.7172,9666.8320 6521.4891,9634.4909 6551.8091,9612.0034 C 6575.5594,9594.5698 6602.3419,9585.8529 6632.1566,9585.8526 C 6650.8536,9585.8529 6665.0028,9589.3902 6674.6044,9596.4645 C 6684.2054,9603.5394 6689.0060,9612.1301 6689.0063,9622.2364 C 6689.0060,9630.0693 6686.4794,9636.5122 6681.4264,9641.5653 C 6676.3728,9646.3662 6669.2981,9648.7665 6660.2025,9648.7662 C 6651.3589,9648.7665 6639.9890,9644.7238 6626.0927,9636.6383 C 6611.6905,9628.0479 6599.6889,9623.7526 6590.0879,9623.7524 C 6577.7071,9623.7526 6565.3265,9629.4376 6552.9461,9640.8073 C 6540.8180,9651.9248 6529.1954,9673.6540 6518.0782,9705.9949 C 6506.9608,9738.3362 6501.4022,9770.8037 6501.4023,9803.3974 C 6501.4022,9827.4007 6506.0765,9845.9716 6515.4253,9859.1101 C 6522.2471,9869.2167 6531.8483,9874.2700 6544.2291,9874.2700 C 6573.7907,9874.2700 6609.0375,9856.9625 6649.9695,9822.3473 M 6813.3176,9527.4869 L 6873.5783,9504.3680 L 6846.2905,9610.4874 L 6924.7430,9610.4874 L 6918.6791,9637.3963 L 6840.2265,9637.3963 L 6806.8747,9764.3606 C 6796.5152,9802.5132 6791.3356,9829.0430 6791.3358,9843.9502 C 6791.3356,9850.7722 6792.7253,9855.6992 6795.5047,9858.7311 C 6798.5366,9861.7631 6802.5792,9863.2791 6807.6327,9863.2791 C 6815.4651,9863.2791 6827.4667,9858.6048 6843.6375,9849.2561 C 6864.8611,9836.8756 6885.0743,9822.8527 6904.2772,9807.1874 L 6918.6791,9824.6213 C 6863.3452,9866.3111 6826.3297,9891.8303 6807.6327,9901.1789 C 6788.9353,9910.5275 6773.9017,9915.2018 6762.5319,9915.2018 C 6753.1832,9915.2018 6745.7296,9911.7908 6740.1710,9904.9688 C 6734.8650,9898.1469 6732.2120,9887.0296 6732.2121,9871.6170 C 6732.2120,9853.4252 6737.0126,9825.6320 6746.6140,9788.2375 L 6785.6508,9637.3963 L 6724.2531,9637.3963 L 6731.0751,9610.4874 L 6792.0938,9610.4874 L 6813.3176,9527.4869"
     style="font-size:776.18781;font-style:italic;font-variant:normal;font-weight:normal;font-stretch:normal;fill:#666666;fill-opacity:1.0000000;stroke:none;stroke-width:1.0000000px;stroke-linecap:butt;stroke-linejoin:miter;stroke-opacity:1.0000000;font-family:Monotype Corsiva;text-anchor:start;writing-mode:lr-tb" />
  <g
     transform="matrix(-9.509700e-17,-9.334748e-2,9.334748e-2,-9.509700e-17,8901.656,5414.996)"
     id="g3724">
    <path
       style="fill:#999999;fill-opacity:1.0000000;fill-rule:evenodd;stroke:none;stroke-width:1.0000000px;stroke-linecap:butt;stroke-linejoin:miter;stroke-opacity:1.0000000"
       d="M -32053.829,-42004.201 L -31566.857,-42004.201 C -31437.470,-42004.201 -31376.496,-41915.003 -31376.496,-41813.840 L -31376.496,-39622.467 C -31376.496,-39361.483 -31433.198,-39210.000 -31558.003,-38993.831 L -32517.836,-37331.350 C -32546.770,-37302.416 -32593.389,-37299.752 -32611.632,-37331.350 L -33676.613,-39175.952 C -33729.683,-39267.872 -33722.738,-39356.642 -33676.613,-39436.533 L -32268.097,-41876.156 C -32225.247,-41950.373 -32163.458,-42004.201 -32053.829,-42004.201 z "
       id="path3712"
       sodipodi:nodetypes="ccccccccccc" />
    <rect
       style="fill:#ffbe00;fill-opacity:1.0000000;stroke:none;stroke-opacity:1.0000000"
       id="rect3714"
       width="901.54724"
       height="756.17059"
       x="-31163.479"
       y="-41203.027" />
    <path
       style="fill:#ffbe00;fill-opacity:1.0000000;fill-rule:evenodd;stroke:none;stroke-width:1.0000000px;stroke-linecap:butt;stroke-linejoin:miter;stroke-opacity:1.0000000"
       d="M -31188.520,-39224.634 L -30274.452,-39224.634 L -29792.226,-38389.395 C -29792.226,-38085.303 -30259.627,-37762.528 -30700.182,-37762.528 C -31172.828,-37762.528 -31651.815,-38098.397 -31651.815,-38410.738 L -31188.520,-39224.634 z "
       id="path3716"
       sodipodi:nodetypes="cccccc" />
    <path
       style="fill:#ffbe00;fill-opacity:1.0000000;fill-rule:evenodd;stroke:none;stroke-width:1.0000000px;stroke-linecap:butt;stroke-linejoin:miter;stroke-opacity:1.0000000"
       d="M -31138.434,-41390.852 L -30274.452,-41390.852 L -30274.452,-41854.516 C -30274.452,-42076.579 -30139.234,-42223.531 -29905.436,-42223.531 L -29721.803,-42223.531 C -29721.803,-42583.719 -30177.197,-43078.307 -30705.906,-43078.307 C -31219.308,-43078.307 -31676.414,-42636.537 -31676.414,-42229.032 L -31510.803,-42229.032 C -31311.337,-42229.032 -31132.308,-42074.902 -31132.308,-41853.607 L -31138.434,-41390.852 z "
       id="path3718"
       sodipodi:nodetypes="cccccccccc" />
    <path
       style="fill:#999999;fill-opacity:1.0000000;fill-rule:evenodd;stroke:none;stroke-width:1.0000000px;stroke-linecap:butt;stroke-linejoin:miter;stroke-opacity:1.0000000"
       d="M -29357.725,-41996.810 L -29844.697,-41996.810 C -29974.084,-41996.810 -30035.058,-41907.612 -30035.058,-41806.448 L -30035.058,-39615.076 C -30035.058,-39354.092 -29978.356,-39202.608 -29853.551,-38986.440 L -28893.717,-37323.959 C -28864.783,-37295.025 -28818.164,-37292.361 -28799.921,-37323.959 L -27734.941,-39168.560 C -27681.871,-39260.480 -27688.816,-39349.250 -27734.941,-39429.141 L -29143.457,-41868.764 C -29186.307,-41942.982 -29248.096,-41996.810 -29357.725,-41996.810 z "
       id="path3720"
       sodipodi:nodetypes="ccccccccccc" />
    <rect
       style="fill:#ffbe00;fill-opacity:1.0000000;stroke:none;stroke-opacity:1.0000000"
       id="rect3722"
       width="901.54724"
       height="818.14880"
       x="-31167.645"
       y="-40261.746" />
  </g>
  <rect
     y="11416.112"
     x="4934.4907"
     height="556.47052"
     width="634.79425"
     id="rect3804"
     style="fill:#ffffff;fill-opacity:1.0000000;stroke:none;stroke-width:139.77245;stroke-miterlimit:4.0000000;stroke-opacity:1.0000000" />
  <g
     transform="matrix(0.190992,0.000000,0.000000,0.190992,6640.399,16597.56)"
     id="g3820">
    <path
       style="fill:#999999;fill-opacity:1.0000000;fill-rule:evenodd;stroke:none;stroke-width:1.0000000px;stroke-linecap:butt;stroke-linejoin:miter;stroke-opacity:1.0000000"
       d="M -6439.7216,-26370.296 L -6439.7216,-26128.445 C -6439.7216,-26064.187 -6484.0210,-26033.904 -6534.2627,-26033.904 L -7622.5884,-26033.904 C -7752.2037,-26033.904 -7827.4364,-26062.065 -7934.7948,-26124.048 L -8760.4510,-26600.741 C -8774.8208,-26615.110 -8776.1439,-26638.263 -8760.4510,-26647.324 L -7844.3460,-27176.237 C -7798.6948,-27202.593 -7754.6080,-27199.144 -7714.9308,-27176.237 L -6503.3140,-26476.710 C -6466.4548,-26455.429 -6439.7216,-26424.742 -6439.7216,-26370.296 z "
       id="path3822"
       sodipodi:nodetypes="ccccccccccc" />
    <rect
       transform="matrix(-3.198397e-18,1.000000,-1.000000,-3.198397e-18,0.000000,0.000000)"
       style="fill:#ffbe00;fill-opacity:1.0000000;stroke:none;stroke-opacity:1.0000000"
       id="rect3824"
       width="447.74533"
       height="375.54532"
       x="-25928.111"
       y="6837.6172" />
    <path
       style="fill:#ffbe00;fill-opacity:1.0000000;fill-rule:evenodd;stroke:none;stroke-width:1.0000000px;stroke-linecap:butt;stroke-linejoin:miter;stroke-opacity:1.0000000"
       d="M -7820.1685,-25940.548 L -7820.1685,-25486.584 L -8234.9825,-25247.091 C -8386.0070,-25247.091 -8546.3103,-25479.221 -8546.3103,-25698.019 C -8546.3103,-25932.754 -8379.5040,-26170.639 -8224.3827,-26170.639 L -7820.1685,-25940.548 z "
       id="path3826"
       sodipodi:nodetypes="cccccc" />
    <path
       style="fill:#ffbe00;fill-opacity:1.0000000;fill-rule:evenodd;stroke:none;stroke-width:1.0000000px;stroke-linecap:butt;stroke-linejoin:miter;stroke-opacity:1.0000000"
       d="M -6744.3359,-25915.673 L -6744.3359,-25486.584 L -6514.0613,-25486.584 C -6403.7757,-25486.584 -6330.7933,-25419.429 -6330.7933,-25303.316 L -6330.7933,-25212.116 C -6151.9092,-25212.116 -5906.2765,-25438.283 -5906.2765,-25700.862 C -5906.2765,-25955.838 -6125.6776,-26182.856 -6328.0613,-26182.856 L -6328.0613,-26100.607 C -6328.0613,-26001.544 -6404.6086,-25912.631 -6514.5128,-25912.631 L -6744.3359,-25915.673 z "
       id="path3828"
       sodipodi:nodetypes="cccccccccc" />
    <path
       style="fill:#999999;fill-opacity:1.0000000;fill-rule:evenodd;stroke:none;stroke-width:1.0000000px;stroke-linecap:butt;stroke-linejoin:miter;stroke-opacity:1.0000000"
       d="M -6443.3923,-25031.300 L -6443.3923,-25273.150 C -6443.3923,-25337.409 -6487.6917,-25367.691 -6537.9339,-25367.691 L -7626.2590,-25367.691 C -7755.8744,-25367.691 -7831.1076,-25339.531 -7938.4655,-25277.547 L -8764.1217,-24800.855 C -8778.4915,-24786.485 -8779.8145,-24763.332 -8764.1217,-24754.272 L -7848.0172,-24225.359 C -7802.3660,-24199.002 -7758.2791,-24202.451 -7718.6020,-24225.359 L -6506.9852,-24924.886 C -6470.1255,-24946.167 -6443.3923,-24976.854 -6443.3923,-25031.300 z "
       id="path3830"
       sodipodi:nodetypes="ccccccccccc" />
    <rect
       transform="matrix(-3.198397e-18,1.000000,-1.000000,-3.198397e-18,0.000000,0.000000)"
       style="fill:#ffbe00;fill-opacity:1.0000000;stroke:none;stroke-opacity:1.0000000"
       id="rect3832"
       width="447.74533"
       height="406.32623"
       x="-25930.180"
       y="7305.0962" />
  </g>
  <rect
     y="7401.4277"
     x="2231.0754"
     height="3490.0427"
     width="5909.5171"
     id="rect5350"
     style="fill:none;fill-opacity:1.0000000;stroke:#000000;stroke-width:24.492699;stroke-miterlimit:4.0000000;stroke-opacity:1.0000000" />
  <rect
     y="10890.223"
     x="2231.0747"
     height="3490.0427"
     width="5909.5171"
     id="rect5352"
     style="fill:none;fill-opacity:1.0000000;stroke:#000000;stroke-width:24.492699;stroke-miterlimit:4.0000000;stroke-opacity:1.0000000" />
  <path
     transform="matrix(0.188129,0.000000,0.000000,0.126853,8429.473,9857.396)"
     d="M -6716.8896 -30904.666 A 13010.444 6914.4443 0 1 1  -32737.778,-30904.666 A 13010.444 6914.4443 0 1 1  -6716.8896 -30904.666 z"
     sodipodi:ry="6914.4443"
     sodipodi:rx="13010.444"
     sodipodi:cy="-30904.666"
     sodipodi:cx="-19727.334"
     id="path1451"
     style="fill:none;fill-opacity:0.75000000;fill-rule:evenodd;stroke:#666666;stroke-width:139.77245;stroke-linecap:butt;stroke-linejoin:miter;stroke-miterlimit:4.0000000;stroke-opacity:1.0000000"
     sodipodi:type="arc" />
  <rect
     y="6383.0269"
     x="2784.4749"
     height="556.47052"
     width="4162.1001"
     id="rect1453"
     style="fill:#ffffff;fill-opacity:1.0000000;stroke:none;stroke-width:139.77245;stroke-miterlimit:4.0000000;stroke-opacity:1.0000000" />
  <rect
     y="4229.5625"
     x="2246.3494"
     height="2403.0906"
     width="2643.3918"
     id="rect1455"
     style="fill:#ffffff;fill-opacity:1.0000000;stroke:none;stroke-width:139.77245;stroke-miterlimit:4.0000000;stroke-opacity:1.0000000" />
  <path
     id="text1457"
     d="M 4549.2726,5789.4579 L 4508.2992,5860.9606 L 4508.2992,5989.5047 L 4387.7891,5989.5047 L 4387.7891,5827.2177 L 4550.8794,5547.6343 C 4564.8049,5522.9971 4583.5509,5503.7155 4607.1175,5489.7894 C 4630.6837,5475.3287 4657.9993,5468.0981 4689.0644,5468.0976 C 4720.6645,5468.0981 4747.7123,5474.2575 4770.2079,5486.5758 C 4793.2383,5498.8951 4812.7877,5519.5157 4828.8561,5548.4377 L 4990.3397,5827.2177 L 4990.3397,5989.5047 L 4869.8296,5989.5047 L 4869.8296,5858.5504 L 4829.6595,5789.4579 L 4549.2726,5789.4579 L 4549.2726,5789.4579 M 4759.7636,5668.9478 L 4724.4140,5607.8893 C 4720.1289,5599.3201 4715.0407,5593.9641 4709.1494,5591.8213 C 4703.7931,5589.6793 4697.0981,5588.6081 4689.0644,5588.6077 C 4682.1013,5588.6081 4676.2097,5589.4115 4671.3896,5591.0179 C 4667.1045,5592.6251 4662.8197,5596.6421 4658.5351,5603.0689 C 4657.9993,5604.1405 4657.4637,5605.2117 4656.9283,5606.2825 C 4656.3925,5606.8185 4655.8569,5607.6219 4655.3215,5608.6927 L 4619.9719,5668.9478 L 4759.7636,5668.9478 L 4759.7636,5668.9478 M 5031.1374,5990.3081 L 5031.1374,5468.0976 L 5432.8378,5468.0976 C 5477.2922,5468.6337 5515.0520,5484.7017 5546.1173,5516.3016 C 5577.7172,5547.3669 5593.5174,5585.1267 5593.5179,5629.5811 L 5593.5179,5990.3081 L 5473.0078,5990.3081 L 5473.0078,5628.7777 C 5473.0074,5618.6017 5469.2582,5609.7643 5461.7602,5602.2655 C 5454.2614,5594.7675 5445.9596,5590.4827 5436.8548,5589.4111 C 5436.3188,5589.4115 5435.5154,5589.4115 5434.4446,5589.4111 C 5433.9086,5589.4115 5433.3730,5589.4115 5432.8378,5589.4111 L 5151.6475,5588.6077 L 5151.6475,5990.3081 L 5031.1374,5990.3081 L 5031.1374,5990.3081 M 5836.1073,5588.6077 L 5635.2571,5588.6077 L 5635.2571,5468.0976 L 6157.4677,5468.0976 L 6157.4677,5588.6077 L 5956.6175,5588.6077 L 5956.6175,5990.3081 L 5836.1073,5990.3081 L 5836.1073,5588.6077 L 5836.1073,5588.6077 M 6399.4294,5588.6077 L 6198.5792,5588.6077 L 6198.5792,5468.0976 L 6720.7897,5468.0976 L 6720.7897,5588.6077 L 6519.9395,5588.6077 L 6519.9395,5990.3081 L 6399.4294,5990.3081 L 6399.4294,5588.6077 L 6399.4294,5588.6077"
     style="font-size:803.40082;font-style:normal;font-variant:normal;font-weight:normal;font-stretch:normal;fill:#ff9900;fill-opacity:1.0000000;stroke:none;stroke-width:1.0000000px;stroke-linecap:butt;stroke-linejoin:miter;stroke-opacity:1.0000000;font-family:ShowShifter Body;text-anchor:start;writing-mode:lr-tb" />
  <path
     sodipodi:nodetypes="cccccccccccccccccccccccccccc"
     id="path1461"
     d="M 3437.4380,5445.3948 L 3845.8290,5209.7228 C 3863.4402,5199.5553 3885.0839,5200.0479 3902.0474,5209.8421 L 4310.6191,5445.9029 C 4321.0316,5451.9146 4317.7043,5463.5315 4304.8920,5463.5315 L 4094.4693,5463.5315 L 3890.1618,5345.6468 C 3879.5350,5339.5117 3868.1841,5339.8778 3858.8108,5345.2897 L 3547.3894,5525.1671 C 3538.5009,5530.2988 3532.5251,5539.9920 3532.5251,5550.9132 L 3532.5251,5911.0044 C 3532.5251,5920.5721 3537.2212,5931.5094 3547.0658,5937.1930 L 3865.6280,6121.2933 C 3875.1715,6126.8031 3886.9147,6126.7664 3896.6889,6121.1232 L 4201.9720,5944.9238 C 4211.8998,5939.1922 4218.2770,5930.0403 4218.2770,5916.6832 L 4218.2770,5799.5994 L 4092.5040,5799.5994 L 4092.5040,5681.6807 L 4338.1676,5681.6807 L 4338.1676,5975.4106 C 4338.1676,5992.2297 4328.3563,6013.5646 4314.0705,6021.8126 L 3905.8570,6258.9666 C 3886.6201,6270.0734 3867.0571,6270.3294 3847.3764,6258.9666 L 3440.0693,6023.8034 C 3424.8011,6014.9887 3412.3230,5997.7560 3412.3230,5975.2702 L 3412.3230,5492.3015 C 3412.3230,5468.4826 3426.2694,5453.5243 3437.4380,5445.3948 z "
     style="fill:#ff9900;fill-opacity:1.0000000;fill-rule:evenodd;stroke:none;stroke-width:1.0000000px;stroke-linecap:butt;stroke-linejoin:miter;stroke-opacity:1.0000000" />
  <path
     id="text1463"
     d="M 5125.1809,6189.8904 L 5110.4000,6174.7305 C 5133.3924,6147.1903 5156.2586,6126.8507 5178.9986,6113.7119 C 5201.7383,6100.5736 5221.4462,6094.0043 5238.1223,6094.0040 C 5244.4387,6094.0043 5249.3657,6095.6466 5252.9032,6098.9309 C 5256.6930,6101.9632 5258.5880,6106.5112 5258.5882,6112.5749 C 5258.5880,6119.9025 5257.7037,6127.4824 5255.9352,6135.3147 C 5254.4190,6142.8950 5249.3657,6161.0869 5240.7753,6189.8904 C 5279.4328,6151.2329 5305.8363,6127.3561 5319.9859,6118.2598 C 5343.7361,6102.8476 5365.4653,6095.1413 5385.1735,6095.1410 C 5398.0591,6095.1413 5408.9237,6101.2052 5417.7673,6113.3329 C 5426.6102,6125.4611 5431.0319,6143.7793 5431.0323,6168.2876 C 5431.0319,6229.4327 5411.9557,6287.5457 5373.8036,6342.6266 C 5335.6508,6397.7077 5293.4558,6425.2482 5247.2182,6425.2482 C 5229.0262,6425.2482 5210.8343,6420.3212 5192.6425,6410.4673 L 5160.4277,6535.5366 C 5158.4063,6543.1164 5157.3956,6549.3067 5157.3957,6554.1075 C 5157.3956,6563.4559 5160.9329,6570.1516 5168.0077,6574.1944 C 5178.8722,6580.5108 5201.7383,6585.6905 5236.6063,6589.7333 L 5231.6793,6608.6832 C 5191.0001,6605.3983 5159.0380,6603.7560 5135.7928,6603.7562 C 5111.7896,6603.7560 5080.7118,6605.3983 5042.5594,6608.6832 L 5047.4863,6589.7333 C 5066.6889,6587.7118 5080.5855,6582.4058 5089.1761,6573.8154 C 5098.0193,6565.2246 5105.0940,6549.9384 5110.4000,6527.9566 L 5178.9986,6240.2972 C 5191.8844,6186.7324 5198.3274,6156.9179 5198.3275,6150.8537 C 5198.3274,6144.2846 5195.1691,6141.0000 5188.8526,6140.9997 C 5177.7352,6141.0000 5156.5113,6157.2969 5125.1809,6189.8904 M 5201.7385,6368.7775 C 5221.6989,6388.7381 5242.1648,6398.7183 5263.1362,6398.7183 C 5293.4558,6398.7183 5319.9856,6375.0942 5342.7257,6327.8457 C 5365.7180,6280.5974 5377.2142,6234.4861 5377.2145,6189.5114 C 5377.2142,6175.1098 5373.9296,6164.2452 5367.3606,6156.9176 C 5361.0437,6149.3379 5352.4530,6145.5480 5341.5887,6145.5477 C 5329.4605,6145.5480 5315.8166,6151.4856 5300.6570,6163.3606 C 5277.1589,6181.8054 5259.2196,6200.1236 5246.8392,6218.3153 C 5237.9958,6231.4541 5229.6578,6254.1939 5221.8254,6286.5349 L 5201.7385,6368.7775 M 5530.7087,6414.6362 L 5474.2380,6414.6362 L 5500.7679,6312.6858 C 5513.6537,6262.6582 5524.8973,6215.1572 5534.4987,6170.1826 C 5536.7725,6159.0655 5537.9095,6152.1172 5537.9097,6149.3377 C 5537.9095,6143.2740 5535.1302,6140.2420 5529.5717,6140.2417 C 5525.7816,6140.2420 5519.9703,6142.8950 5512.1378,6148.2007 C 5504.3051,6153.2542 5490.1558,6166.0138 5469.6900,6186.4795 L 5457.9411,6173.2145 C 5482.1969,6147.1903 5506.3264,6127.7351 5530.3297,6114.8489 C 5554.5854,6101.7106 5573.1563,6095.1413 5586.0424,6095.1410 C 5590.5902,6095.1413 5594.1275,6096.2783 5596.6544,6098.5519 C 5599.4335,6100.5736 5600.8231,6103.2266 5600.8233,6106.5109 C 5600.8231,6109.7958 5599.1808,6118.5128 5595.8964,6132.6618 L 5579.5994,6200.5024 C 5605.1184,6160.3289 5633.9223,6125.9664 5666.0110,6097.4149 C 5681.4233,6083.7713 5694.3092,6076.9494 5704.6688,6076.9491 C 5712.2484,6076.9494 5718.5650,6079.4760 5723.6187,6084.5290 C 5728.6716,6089.3300 5731.1983,6095.0149 5731.1986,6101.5839 C 5731.1983,6108.4062 5728.6716,6114.2175 5723.6187,6119.0178 C 5718.8177,6123.8188 5706.5635,6129.5037 5686.8559,6136.0727 C 5668.1584,6142.3896 5652.8721,6149.9696 5640.9971,6158.8126 C 5629.3743,6167.6561 5616.4884,6181.1737 5602.3393,6199.3654 C 5588.4425,6217.5575 5578.7149,6233.4754 5573.1565,6247.1191 C 5567.5977,6260.5106 5559.1334,6291.8410 5547.7636,6341.1106 L 5530.7087,6414.6362 M 5882.0398,6095.8990 C 5906.8007,6095.8993 5927.3929,6105.7532 5943.8165,6125.4608 C 5960.2394,6145.1690 5968.4510,6172.5831 5968.4513,6207.7033 C 5968.4510,6263.7952 5948.7431,6314.2019 5909.3277,6358.9235 C 5869.9116,6403.3926 5828.2219,6425.6272 5784.2583,6425.6272 C 5757.2230,6425.6272 5735.3675,6416.7839 5718.6917,6399.0973 C 5702.2684,6381.4108 5694.0568,6357.2813 5694.0568,6326.7087 C 5694.0568,6273.6491 5709.2167,6224.6321 5739.5366,6179.6575 C 5777.6889,6123.8188 5825.1899,6095.8993 5882.0398,6095.8990 M 5849.8250,6124.3238 C 5828.3482,6124.3241 5807.5034,6139.7367 5787.2903,6170.5615 C 5767.3296,6201.1343 5757.3494,6243.4557 5757.3495,6297.5259 C 5757.3494,6330.3724 5763.5397,6356.2706 5775.9204,6375.2204 C 5785.0162,6389.1171 5797.1441,6396.0653 5812.3042,6396.0653 C 5833.5279,6396.0653 5852.8567,6382.9268 5870.2909,6356.6495 C 5892.5252,6322.5398 5903.6424,6280.2184 5903.6427,6229.6852 C 5903.6424,6191.7857 5898.4628,6164.7505 5888.1038,6148.5797 C 5877.9969,6132.4094 5865.2373,6124.3241 5849.8250,6124.3238 M 6168.9413,5932.9298 C 6176.7736,5932.9303 6183.2166,5935.5833 6188.2702,5940.8888 C 6193.3232,5945.9426 6195.8499,5952.5119 6195.8501,5960.5967 C 6195.8499,5971.7144 6191.9336,5981.5683 6184.1012,5990.1585 C 6176.5210,5998.4969 6168.0567,6002.6659 6158.7083,6002.6655 C 6150.8755,6002.6659 6144.4325,6000.0129 6139.3794,5994.7065 C 6134.3259,5989.4010 6131.7993,5982.4527 6131.7995,5973.8616 C 6131.7993,5962.4921 6135.4629,5952.8909 6142.7904,5945.0578 C 6150.3702,5936.9730 6159.0871,5932.9303 6168.9413,5932.9298 M 6018.1001,6186.8585 L 6003.6982,6170.5615 C 6025.1746,6147.3166 6048.2935,6128.7457 6073.0548,6114.8489 C 6098.0685,6100.9526 6117.2710,6094.0043 6130.6625,6094.0040 C 6136.2209,6094.0043 6140.7689,6095.7729 6144.3064,6099.3099 C 6148.0962,6102.5949 6149.9912,6106.8902 6149.9914,6112.1959 C 6149.9912,6118.7655 6145.9485,6136.7047 6137.8634,6166.0136 L 6072.2968,6405.1613 C 6050.3148,6486.5194 6026.0589,6541.4741 5999.5292,6570.0254 C 5972.9993,6598.8291 5941.9215,6613.2310 5906.2957,6613.2312 C 5888.6092,6613.2310 5875.0916,6609.8200 5865.7429,6602.9982 C 5856.1417,6596.4287 5851.3411,6588.8488 5851.3410,6580.2583 C 5851.3411,6574.1942 5853.6151,6569.0146 5858.1629,6564.7194 C 5862.4583,6560.4240 5867.7643,6558.2763 5874.0809,6558.2765 C 5881.1555,6558.2763 5891.2621,6561.5610 5904.4007,6568.1304 C 5919.5606,6575.7102 5931.1832,6579.5002 5939.2685,6579.5003 C 5952.9124,6579.5002 5963.9033,6573.1835 5972.2413,6560.5504 C 5980.5792,6548.1697 5993.0862,6508.2486 6009.7621,6440.7871 C 6026.9433,6371.8095 6041.4715,6315.7179 6053.3469,6272.5120 L 6079.8767,6177.0045 C 6084.9299,6161.5922 6087.4566,6151.9909 6087.4567,6148.2007 C 6087.4566,6146.1796 6086.5722,6144.4110 6084.8037,6142.8947 C 6083.2876,6141.3790 6081.6453,6140.6210 6079.8767,6140.6207 C 6070.0227,6140.6210 6049.4305,6156.0336 6018.1001,6186.8585 M 6371.7052,6319.5077 L 6384.2121,6336.1837 C 6322.3089,6395.0547 6269.2492,6424.4902 6225.0330,6424.4902 C 6207.0936,6424.4902 6193.3234,6418.4262 6183.7222,6406.2983 C 6174.3735,6394.1704 6169.6992,6374.7152 6169.6993,6347.9326 C 6169.6992,6293.8623 6186.1224,6240.0447 6218.9690,6186.4795 C 6255.8580,6125.5874 6299.9480,6095.1413 6351.2393,6095.1410 C 6369.1783,6095.1413 6382.8222,6099.6892 6392.1711,6108.7849 C 6401.7720,6117.6285 6406.5727,6129.8827 6406.5730,6145.5477 C 6406.5727,6161.9712 6400.8877,6178.1417 6389.5181,6194.0594 C 6378.1479,6209.9775 6357.8083,6226.5271 6328.4994,6243.7082 C 6313.8446,6252.0463 6282.5141,6267.0798 6234.5079,6288.8089 C 6232.2338,6302.4529 6231.0968,6315.4652 6231.0969,6327.8457 C 6231.0968,6345.7850 6233.8761,6358.2919 6239.4349,6365.3665 C 6245.2460,6372.4412 6253.5840,6375.9785 6264.4487,6375.9784 C 6274.8079,6375.9785 6286.1778,6373.0728 6298.5586,6367.2615 C 6315.2343,6359.4289 6339.6164,6343.5110 6371.7052,6319.5077 M 6239.0559,6264.5530 C 6279.7348,6246.3613 6310.3073,6226.7798 6330.7734,6205.8084 C 6344.6697,6191.1540 6351.6180,6176.6258 6351.6183,6162.2236 C 6351.6180,6151.3592 6348.7124,6142.7686 6342.9013,6136.4517 C 6337.3425,6129.8827 6330.0152,6126.5981 6320.9194,6126.5978 C 6311.5706,6126.5981 6302.4747,6130.1354 6293.6316,6137.2097 C 6281.7561,6146.5586 6271.7759,6160.7079 6263.6908,6179.6575 C 6252.0680,6207.4509 6243.8564,6235.7494 6239.0559,6264.5530 M 6644.9627,6332.3937 L 6652.9216,6354.3756 C 6592.7871,6401.6240 6542.0014,6425.2482 6500.5645,6425.2482 C 6478.5825,6425.2482 6462.5383,6417.4155 6452.4317,6401.7503 C 6442.5777,6386.0851 6437.6507,6366.2509 6437.6508,6342.2476 C 6437.6507,6302.3266 6448.2627,6261.2685 6469.4866,6219.0733 C 6490.7104,6176.8784 6516.4822,6144.5373 6546.8022,6122.0498 C 6570.5526,6104.6162 6597.3351,6095.8993 6627.1498,6095.8990 C 6645.8467,6095.8993 6659.9960,6099.4366 6669.5976,6106.5109 C 6679.1985,6113.5858 6683.9992,6122.1764 6683.9995,6132.2828 C 6683.9992,6140.1157 6681.4725,6146.5586 6676.4195,6151.6117 C 6671.3659,6156.4126 6664.2913,6158.8129 6655.1956,6158.8126 C 6646.3521,6158.8129 6634.9821,6154.7702 6621.0858,6146.6847 C 6606.6837,6138.0943 6594.6821,6133.7990 6585.0810,6133.7987 C 6572.7002,6133.7990 6560.3196,6139.4840 6547.9392,6150.8537 C 6535.8111,6161.9712 6524.1885,6183.7004 6513.0714,6216.0413 C 6501.9540,6248.3826 6496.3954,6280.8501 6496.3955,6313.4438 C 6496.3954,6337.4471 6501.0697,6356.0179 6510.4184,6369.1565 C 6517.2402,6379.2631 6526.8415,6384.3164 6539.2223,6384.3164 C 6568.7839,6384.3164 6604.0307,6367.0089 6644.9627,6332.3937 M 6808.3108,6037.5333 L 6868.5715,6014.4144 L 6841.2836,6120.5338 L 6919.7362,6120.5338 L 6913.6722,6147.4427 L 6835.2197,6147.4427 L 6801.8678,6274.4070 C 6791.5084,6312.5596 6786.3288,6339.0894 6786.3289,6353.9966 C 6786.3288,6360.8186 6787.7184,6365.7455 6790.4979,6368.7775 C 6793.5297,6371.8095 6797.5724,6373.3255 6802.6258,6373.3255 C 6810.4583,6373.3255 6822.4599,6368.6512 6838.6306,6359.3025 C 6859.8543,6346.9220 6880.0675,6332.8991 6899.2703,6317.2338 L 6913.6722,6334.6677 C 6858.3383,6376.3575 6821.3229,6401.8766 6802.6258,6411.2252 C 6783.9285,6420.5739 6768.8949,6425.2482 6757.5251,6425.2482 C 6748.1764,6425.2482 6740.7227,6421.8372 6735.1642,6415.0152 C 6729.8581,6408.1933 6727.2052,6397.0760 6727.2052,6381.6634 C 6727.2052,6363.4716 6732.0058,6335.6784 6741.6072,6298.2839 L 6780.6440,6147.4427 L 6719.2463,6147.4427 L 6726.0683,6120.5338 L 6787.0869,6120.5338 L 6808.3108,6037.5333"
     style="font-size:776.18781;font-style:italic;font-variant:normal;font-weight:normal;font-stretch:normal;fill:#666666;fill-opacity:1.0000000;stroke:none;stroke-width:1.0000000px;stroke-linecap:butt;stroke-linejoin:miter;stroke-opacity:1.0000000;font-family:Monotype Corsiva;text-anchor:start;writing-mode:lr-tb" />
  <g
     transform="matrix(-6.234349e-17,-6.119655e-2,6.119655e-2,-6.234349e-17,7130.512,3179.966)"
     id="g1467">
    <path
       style="fill:#999999;fill-opacity:1.0000000;fill-rule:evenodd;stroke:none;stroke-width:1.0000000px;stroke-linecap:butt;stroke-linejoin:miter;stroke-opacity:1.0000000"
       d="M -32053.829,-42004.201 L -31566.857,-42004.201 C -31437.470,-42004.201 -31376.496,-41915.003 -31376.496,-41813.840 L -31376.496,-39622.467 C -31376.496,-39361.483 -31433.198,-39210.000 -31558.003,-38993.831 L -32517.836,-37331.350 C -32546.770,-37302.416 -32593.389,-37299.752 -32611.632,-37331.350 L -33676.613,-39175.952 C -33729.683,-39267.872 -33722.738,-39356.642 -33676.613,-39436.533 L -32268.097,-41876.156 C -32225.247,-41950.373 -32163.458,-42004.201 -32053.829,-42004.201 z "
       id="path1469"
       sodipodi:nodetypes="ccccccccccc" />
    <rect
       style="fill:#ffbe00;fill-opacity:1.0000000;stroke:none;stroke-opacity:1.0000000"
       id="rect1471"
       width="901.54724"
       height="756.17059"
       x="-31163.479"
       y="-41203.027" />
    <path
       style="fill:#ffbe00;fill-opacity:1.0000000;fill-rule:evenodd;stroke:none;stroke-width:1.0000000px;stroke-linecap:butt;stroke-linejoin:miter;stroke-opacity:1.0000000"
       d="M -31188.520,-39224.634 L -30274.452,-39224.634 L -29792.226,-38389.395 C -29792.226,-38085.303 -30259.627,-37762.528 -30700.182,-37762.528 C -31172.828,-37762.528 -31651.815,-38098.397 -31651.815,-38410.738 L -31188.520,-39224.634 z "
       id="path1473"
       sodipodi:nodetypes="cccccc" />
    <path
       style="fill:#ffbe00;fill-opacity:1.0000000;fill-rule:evenodd;stroke:none;stroke-width:1.0000000px;stroke-linecap:butt;stroke-linejoin:miter;stroke-opacity:1.0000000"
       d="M -31138.434,-41390.852 L -30274.452,-41390.852 L -30274.452,-41854.516 C -30274.452,-42076.579 -30139.234,-42223.531 -29905.436,-42223.531 L -29721.803,-42223.531 C -29721.803,-42583.719 -30177.197,-43078.307 -30705.906,-43078.307 C -31219.308,-43078.307 -31676.414,-42636.537 -31676.414,-42229.032 L -31510.803,-42229.032 C -31311.337,-42229.032 -31132.308,-42074.902 -31132.308,-41853.607 L -31138.434,-41390.852 z "
       id="path1475"
       sodipodi:nodetypes="cccccccccc" />
    <path
       style="fill:#999999;fill-opacity:1.0000000;fill-rule:evenodd;stroke:none;stroke-width:1.0000000px;stroke-linecap:butt;stroke-linejoin:miter;stroke-opacity:1.0000000"
       d="M -29357.725,-41996.810 L -29844.697,-41996.810 C -29974.084,-41996.810 -30035.058,-41907.612 -30035.058,-41806.448 L -30035.058,-39615.076 C -30035.058,-39354.092 -29978.356,-39202.608 -29853.551,-38986.440 L -28893.717,-37323.959 C -28864.783,-37295.025 -28818.164,-37292.361 -28799.921,-37323.959 L -27734.941,-39168.560 C -27681.871,-39260.480 -27688.816,-39349.250 -27734.941,-39429.141 L -29143.457,-41868.764 C -29186.307,-41942.982 -29248.096,-41996.810 -29357.725,-41996.810 z "
       id="path1477"
       sodipodi:nodetypes="ccccccccccc" />
    <rect
       style="fill:#ffbe00;fill-opacity:1.0000000;stroke:none;stroke-opacity:1.0000000"
       id="rect1479"
       width="901.54724"
       height="818.14880"
       x="-31167.645"
       y="-40261.746" />
  </g>
  <rect
     y="3911.4729"
     x="2226.0688"
     height="3490.0427"
     width="5909.5171"
     id="rect1481"
     style="fill:none;fill-opacity:1.0000000;stroke:#000000;stroke-width:24.492699;stroke-miterlimit:4.0000000;stroke-opacity:1.0000000" />
  <path
     id="text1489"
     d="M 4549.2721,2293.7667 L 4508.2987,2365.2694 L 4508.2987,2493.8135 L 4387.7886,2493.8135 L 4387.7886,2331.5266 L 4550.8789,2051.9431 C 4564.8044,2027.3059 4583.5504,2008.0243 4607.1170,1994.0982 C 4630.6832,1979.6375 4657.9988,1972.4069 4689.0639,1972.4064 C 4720.6640,1972.4069 4747.7118,1978.5663 4770.2074,1990.8846 C 4793.2378,2003.2039 4812.7872,2023.8245 4828.8556,2052.7465 L 4990.3392,2331.5266 L 4990.3392,2493.8135 L 4869.8291,2493.8135 L 4869.8291,2362.8592 L 4829.6590,2293.7667 L 4549.2721,2293.7667 L 4549.2721,2293.7667 M 4759.7632,2173.2566 L 4724.4135,2112.1982 C 4720.1284,2103.6289 4715.0402,2098.2729 4709.1489,2096.1301 C 4703.7926,2093.9881 4697.0976,2092.9169 4689.0639,2092.9165 C 4682.1008,2092.9169 4676.2092,2093.7203 4671.3891,2095.3267 C 4667.1040,2096.9339 4662.8192,2100.9509 4658.5346,2107.3777 C 4657.9988,2108.4493 4657.4632,2109.5205 4656.9278,2110.5914 C 4656.3920,2111.1273 4655.8564,2111.9307 4655.3210,2113.0016 L 4619.9714,2173.2566 L 4759.7632,2173.2566 L 4759.7632,2173.2566 M 5031.1369,2494.6169 L 5031.1369,1972.4064 L 5432.8373,1972.4064 C 5477.2917,1972.9425 5515.0515,1989.0105 5546.1168,2020.6105 C 5577.7167,2051.6757 5593.5169,2089.4355 5593.5175,2133.8900 L 5593.5175,2494.6169 L 5473.0073,2494.6169 L 5473.0073,2133.0866 C 5473.0069,2122.9105 5469.2577,2114.0731 5461.7597,2106.5743 C 5454.2609,2099.0763 5445.9591,2094.7915 5436.8543,2093.7199 C 5436.3183,2093.7203 5435.5149,2093.7203 5434.4441,2093.7199 C 5433.9081,2093.7203 5433.3725,2093.7203 5432.8373,2093.7199 L 5151.6470,2092.9165 L 5151.6470,2494.6169 L 5031.1369,2494.6169 L 5031.1369,2494.6169 M 5836.1068,2092.9165 L 5635.2566,2092.9165 L 5635.2566,1972.4064 L 6157.4672,1972.4064 L 6157.4672,2092.9165 L 5956.6170,2092.9165 L 5956.6170,2494.6169 L 5836.1068,2494.6169 L 5836.1068,2092.9165 L 5836.1068,2092.9165 M 6399.4289,2092.9165 L 6198.5787,2092.9165 L 6198.5787,1972.4064 L 6720.7892,1972.4064 L 6720.7892,2092.9165 L 6519.9390,2092.9165 L 6519.9390,2494.6169 L 6399.4289,2494.6169 L 6399.4289,2092.9165 L 6399.4289,2092.9165"
     style="font-size:803.40082;font-style:normal;font-variant:normal;font-weight:normal;font-stretch:normal;fill:#ff9900;fill-opacity:1.0000000;stroke:none;stroke-width:1.0000000px;stroke-linecap:butt;stroke-linejoin:miter;stroke-opacity:1.0000000;font-family:ShowShifter Body;text-anchor:start;writing-mode:lr-tb" />
  <path
     sodipodi:nodetypes="cccccccccccccccccccccccccccc"
     id="path1493"
     d="M 3437.4376,1949.7034 L 3845.8286,1714.0315 C 3863.4397,1703.8639 3885.0835,1704.3565 3902.0470,1714.1507 L 4310.6187,1950.2115 C 4321.0312,1956.2232 4317.7039,1967.8402 4304.8916,1967.8402 L 4094.4689,1967.8402 L 3890.1614,1849.9555 C 3879.5346,1843.8203 3868.1837,1844.1865 3858.8104,1849.5984 L 3547.3890,2029.4757 C 3538.5005,2034.6074 3532.5247,2044.3007 3532.5247,2055.2218 L 3532.5247,2415.3131 C 3532.5247,2424.8807 3537.2208,2435.8181 3547.0654,2441.5016 L 3865.6276,2625.6019 C 3875.1711,2631.1117 3886.9143,2631.0751 3896.6885,2625.4318 L 4201.9716,2449.2325 C 4211.8994,2443.5008 4218.2766,2434.3489 4218.2766,2420.9918 L 4218.2766,2303.9080 L 4092.5036,2303.9080 L 4092.5036,2185.9894 L 4338.1672,2185.9894 L 4338.1672,2479.7193 C 4338.1672,2496.5384 4328.3559,2517.8733 4314.0701,2526.1212 L 3905.8566,2763.2753 C 3886.6197,2774.3820 3867.0567,2774.6381 3847.3760,2763.2753 L 3440.0689,2528.1121 C 3424.8007,2519.2974 3412.3226,2502.0647 3412.3226,2479.5788 L 3412.3226,1996.6101 C 3412.3226,1972.7913 3426.2690,1957.8329 3437.4376,1949.7034 z "
     style="fill:#ff9900;fill-opacity:1.0000000;fill-rule:evenodd;stroke:none;stroke-width:1.0000000px;stroke-linecap:butt;stroke-linejoin:miter;stroke-opacity:1.0000000" />
  <path
     id="text1495"
     d="M 5125.1804,2694.1990 L 5110.3995,2679.0391 C 5133.3920,2651.4989 5156.2581,2631.1593 5178.9981,2618.0205 C 5201.7379,2604.8822 5221.4457,2598.3129 5238.1218,2598.3126 C 5244.4382,2598.3129 5249.3652,2599.9552 5252.9027,2603.2395 C 5256.6925,2606.2718 5258.5875,2610.8198 5258.5877,2616.8835 C 5258.5875,2624.2110 5257.7032,2631.7910 5255.9347,2639.6233 C 5254.4185,2647.2036 5249.3652,2665.3954 5240.7748,2694.1990 C 5279.4324,2655.5415 5305.8359,2631.6647 5319.9854,2622.5684 C 5343.7356,2607.1562 5365.4648,2599.4499 5385.1730,2599.4496 C 5398.0586,2599.4499 5408.9232,2605.5138 5417.7668,2617.6415 C 5426.6097,2629.7697 5431.0314,2648.0879 5431.0318,2672.5962 C 5431.0314,2733.7413 5411.9552,2791.8543 5373.8031,2846.9352 C 5335.6503,2902.0163 5293.4553,2929.5568 5247.2178,2929.5568 C 5229.0257,2929.5568 5210.8338,2924.6298 5192.6421,2914.7758 L 5160.4272,3039.8452 C 5158.4058,3047.4250 5157.3951,3053.6153 5157.3952,3058.4161 C 5157.3951,3067.7645 5160.9325,3074.4602 5168.0072,3078.5030 C 5178.8717,3084.8194 5201.7379,3089.9991 5236.6058,3094.0419 L 5231.6788,3112.9918 C 5190.9996,3109.7069 5159.0375,3108.0646 5135.7924,3108.0648 C 5111.7891,3108.0646 5080.7113,3109.7069 5042.5589,3112.9918 L 5047.4858,3094.0419 C 5066.6884,3092.0204 5080.5850,3086.7144 5089.1756,3078.1240 C 5098.0189,3069.5332 5105.0935,3054.2470 5110.3995,3032.2652 L 5178.9981,2744.6058 C 5191.8839,2691.0410 5198.3269,2661.2265 5198.3270,2655.1622 C 5198.3269,2648.5932 5195.1686,2645.3086 5188.8521,2645.3083 C 5177.7347,2645.3086 5156.5108,2661.6055 5125.1804,2694.1990 M 5201.7380,2873.0861 C 5221.6984,2893.0467 5242.1643,2903.0269 5263.1357,2903.0269 C 5293.4553,2903.0269 5319.9851,2879.4027 5342.7252,2832.1543 C 5365.7175,2784.9060 5377.2137,2738.7946 5377.2141,2693.8200 C 5377.2137,2679.4184 5373.9291,2668.5538 5367.3601,2661.2262 C 5361.0432,2653.6465 5352.4526,2649.8565 5341.5882,2649.8563 C 5329.4600,2649.8565 5315.8161,2655.7942 5300.6565,2667.6692 C 5277.1584,2686.1140 5259.2192,2704.4322 5246.8388,2722.6239 C 5237.9953,2735.7627 5229.6573,2758.5025 5221.8249,2790.8435 L 5201.7380,2873.0861 M 5530.7082,2918.9448 L 5474.2375,2918.9448 L 5500.7674,2816.9944 C 5513.6532,2766.9668 5524.8968,2719.4658 5534.4982,2674.4911 C 5536.7721,2663.3741 5537.9090,2656.4258 5537.9092,2653.6463 C 5537.9090,2647.5826 5535.1297,2644.5506 5529.5712,2644.5503 C 5525.7811,2644.5506 5519.9698,2647.2036 5512.1373,2652.5093 C 5504.3046,2657.5628 5490.1553,2670.3224 5469.6896,2690.7881 L 5457.9406,2677.5231 C 5482.1964,2651.4989 5506.3259,2632.0437 5530.3292,2619.1574 C 5554.5849,2606.0192 5573.1558,2599.4499 5586.0419,2599.4496 C 5590.5897,2599.4499 5594.1270,2600.5869 5596.6539,2602.8605 C 5599.4330,2604.8822 5600.8226,2607.5352 5600.8228,2610.8195 C 5600.8226,2614.1044 5599.1803,2622.8214 5595.8959,2636.9703 L 5579.5990,2704.8110 C 5605.1179,2664.6375 5633.9218,2630.2750 5666.0105,2601.7235 C 5681.4228,2588.0799 5694.3087,2581.2580 5704.6683,2581.2576 C 5712.2479,2581.2580 5718.5646,2583.7846 5723.6182,2588.8376 C 5728.6712,2593.6386 5731.1978,2599.3235 5731.1981,2605.8925 C 5731.1978,2612.7148 5728.6712,2618.5261 5723.6182,2623.3264 C 5718.8172,2628.1274 5706.5630,2633.8123 5686.8554,2640.3813 C 5668.1579,2646.6982 5652.8716,2654.2782 5640.9966,2663.1212 C 5629.3738,2671.9647 5616.4879,2685.4823 5602.3388,2703.6740 C 5588.4421,2721.8661 5578.7144,2737.7840 5573.1560,2751.4277 C 5567.5972,2764.8191 5559.1329,2796.1496 5547.7631,2845.4192 L 5530.7082,2918.9448 M 5882.0393,2600.2075 C 5906.8002,2600.2079 5927.3924,2610.0618 5943.8160,2629.7694 C 5960.2389,2649.4775 5968.4505,2676.8917 5968.4509,2712.0119 C 5968.4505,2768.1038 5948.7426,2818.5105 5909.3272,2863.2321 C 5869.9112,2907.7012 5828.2214,2929.9358 5784.2579,2929.9358 C 5757.2225,2929.9358 5735.3670,2921.0925 5718.6912,2903.4059 C 5702.2679,2885.7194 5694.0563,2861.5899 5694.0563,2831.0173 C 5694.0563,2777.9577 5709.2162,2728.9407 5739.5361,2683.9661 C 5777.6884,2628.1274 5825.1894,2600.2079 5882.0393,2600.2075 M 5849.8245,2628.6324 C 5828.3478,2628.6327 5807.5029,2644.0453 5787.2898,2674.8701 C 5767.3291,2705.4429 5757.3489,2747.7643 5757.3490,2801.8345 C 5757.3489,2834.6810 5763.5392,2860.5792 5775.9199,2879.5290 C 5785.0157,2893.4257 5797.1436,2900.3739 5812.3037,2900.3739 C 5833.5274,2900.3739 5852.8563,2887.2354 5870.2904,2860.9581 C 5892.5247,2826.8484 5903.6419,2784.5270 5903.6422,2733.9938 C 5903.6419,2696.0943 5898.4623,2669.0591 5888.1033,2652.8883 C 5877.9964,2636.7180 5865.2368,2628.6327 5849.8245,2628.6324 M 6168.9408,2437.2384 C 6176.7732,2437.2389 6183.2161,2439.8919 6188.2697,2445.1974 C 6193.3227,2450.2512 6195.8494,2456.8205 6195.8496,2464.9053 C 6195.8494,2476.0230 6191.9331,2485.8769 6184.1007,2494.4671 C 6176.5205,2502.8055 6168.0562,2506.9745 6158.7078,2506.9741 C 6150.8750,2506.9745 6144.4320,2504.3215 6139.3789,2499.0151 C 6134.3254,2493.7095 6131.7988,2486.7613 6131.7990,2478.1702 C 6131.7988,2466.8007 6135.4624,2457.1994 6142.7899,2449.3664 C 6150.3697,2441.2816 6159.0866,2437.2389 6168.9408,2437.2384 M 6018.0996,2691.1671 L 6003.6977,2674.8701 C 6025.1741,2651.6252 6048.2930,2633.0543 6073.0543,2619.1574 C 6098.0680,2605.2612 6117.2705,2598.3129 6130.6620,2598.3126 C 6136.2204,2598.3129 6140.7684,2600.0815 6144.3059,2603.6185 C 6148.0957,2606.9035 6149.9907,2611.1988 6149.9909,2616.5045 C 6149.9907,2623.0741 6145.9480,2641.0133 6137.8629,2670.3222 L 6072.2963,2909.4699 C 6050.3143,2990.8280 6026.0585,3045.7827 5999.5287,3074.3340 C 5972.9988,3103.1376 5941.9210,3117.5396 5906.2952,3117.5398 C 5888.6087,3117.5396 5875.0911,3114.1286 5865.7424,3107.3068 C 5856.1412,3100.7373 5851.3406,3093.1574 5851.3405,3084.5669 C 5851.3406,3078.5028 5853.6146,3073.3232 5858.1625,3069.0280 C 5862.4578,3064.7326 5867.7638,3062.5849 5874.0804,3062.5850 C 5881.1551,3062.5849 5891.2617,3065.8695 5904.4002,3072.4390 C 5919.5601,3080.0188 5931.1827,3083.8088 5939.2680,3083.8089 C 5952.9119,3083.8088 5963.9029,3077.4921 5972.2408,3064.8590 C 5980.5788,3052.4783 5993.0857,3012.5572 6009.7616,2945.0957 C 6026.9428,2876.1181 6041.4710,2820.0265 6053.3464,2776.8206 L 6079.8763,2681.3131 C 6084.9294,2665.9008 6087.4561,2656.2995 6087.4562,2652.5093 C 6087.4561,2650.4882 6086.5717,2648.7196 6084.8032,2647.2033 C 6083.2871,2645.6876 6081.6448,2644.9296 6079.8763,2644.9293 C 6070.0222,2644.9296 6049.4300,2660.3421 6018.0996,2691.1671 M 6371.7047,2823.8163 L 6384.2116,2840.4922 C 6322.3084,2899.3633 6269.2487,2928.7988 6225.0325,2928.7988 C 6207.0931,2928.7988 6193.3229,2922.7348 6183.7217,2910.6069 C 6174.3730,2898.4790 6169.6987,2879.0237 6169.6988,2852.2412 C 6169.6987,2798.1709 6186.1219,2744.3533 6218.9685,2690.7881 C 6255.8575,2629.8960 6299.9475,2599.4499 6351.2388,2599.4496 C 6369.1778,2599.4499 6382.8217,2603.9978 6392.1706,2613.0935 C 6401.7716,2621.9371 6406.5722,2634.1913 6406.5725,2649.8563 C 6406.5722,2666.2798 6400.8872,2682.4503 6389.5176,2698.3680 C 6378.1474,2714.2861 6357.8078,2730.8357 6328.4989,2748.0167 C 6313.8441,2756.3549 6282.5137,2771.3884 6234.5074,2793.1175 C 6232.2333,2806.7615 6231.0963,2819.7738 6231.0964,2832.1543 C 6231.0963,2850.0936 6233.8756,2862.6005 6239.4344,2869.6751 C 6245.2456,2876.7498 6253.5835,2880.2871 6264.4483,2880.2870 C 6274.8074,2880.2871 6286.1773,2877.3814 6298.5581,2871.5701 C 6315.2338,2863.7375 6339.6160,2847.8196 6371.7047,2823.8163 M 6239.0554,2768.8616 C 6279.7343,2750.6699 6310.3068,2731.0884 6330.7729,2710.1170 C 6344.6693,2695.4626 6351.6175,2680.9343 6351.6178,2666.5322 C 6351.6175,2655.6678 6348.7119,2647.0772 6342.9008,2640.7603 C 6337.3420,2634.1913 6330.0147,2630.9067 6320.9190,2630.9064 C 6311.5701,2630.9067 6302.4742,2634.4440 6293.6311,2641.5183 C 6281.7557,2650.8672 6271.7754,2665.0165 6263.6903,2683.9661 C 6252.0675,2711.7595 6243.8559,2740.0580 6239.0554,2768.8616 M 6644.9622,2836.7023 L 6652.9212,2858.6841 C 6592.7866,2905.9326 6542.0009,2929.5568 6500.5640,2929.5568 C 6478.5820,2929.5568 6462.5378,2921.7241 6452.4312,2906.0589 C 6442.5772,2890.3937 6437.6503,2870.5595 6437.6503,2846.5562 C 6437.6503,2806.6352 6448.2622,2765.5771 6469.4862,2723.3819 C 6490.7099,2681.1870 6516.4818,2648.8459 6546.8017,2626.3584 C 6570.5521,2608.9248 6597.3346,2600.2079 6627.1493,2600.2075 C 6645.8463,2600.2079 6659.9955,2603.7452 6669.5971,2610.8195 C 6679.1980,2617.8944 6683.9987,2626.4850 6683.9990,2636.5914 C 6683.9987,2644.4242 6681.4720,2650.8672 6676.4190,2655.9202 C 6671.3654,2660.7211 6664.2908,2663.1215 6655.1951,2663.1212 C 6646.3516,2663.1215 6634.9817,2659.0788 6621.0853,2650.9933 C 6606.6832,2642.4029 6594.6816,2638.1076 6585.0805,2638.1073 C 6572.6997,2638.1076 6560.3191,2643.7926 6547.9387,2655.1622 C 6535.8106,2666.2798 6524.1880,2688.0090 6513.0709,2720.3499 C 6501.9535,2752.6912 6496.3949,2785.1587 6496.3950,2817.7524 C 6496.3949,2841.7557 6501.0692,2860.3265 6510.4179,2873.4651 C 6517.2397,2883.5717 6526.8410,2888.6250 6539.2218,2888.6250 C 6568.7834,2888.6250 6604.0302,2871.3175 6644.9622,2836.7023 M 6808.3103,2541.8419 L 6868.5710,2518.7230 L 6841.2831,2624.8424 L 6919.7357,2624.8424 L 6913.6718,2651.7513 L 6835.2192,2651.7513 L 6801.8674,2778.7156 C 6791.5079,2816.8681 6786.3283,2843.3980 6786.3284,2858.3052 C 6786.3283,2865.1272 6787.7179,2870.0541 6790.4974,2873.0861 C 6793.5292,2876.1181 6797.5719,2877.6341 6802.6254,2877.6340 C 6810.4578,2877.6341 6822.4594,2872.9598 6838.6302,2863.6111 C 6859.8538,2851.2306 6880.0670,2837.2077 6899.2698,2821.5424 L 6913.6718,2838.9763 C 6858.3378,2880.6661 6821.3224,2906.1852 6802.6254,2915.5338 C 6783.9280,2924.8825 6768.8944,2929.5568 6757.5246,2929.5568 C 6748.1759,2929.5568 6740.7222,2926.1458 6735.1637,2919.3238 C 6729.8577,2912.5019 6727.2047,2901.3846 6727.2048,2885.9720 C 6727.2047,2867.7802 6732.0053,2839.9870 6741.6067,2802.5925 L 6780.6435,2651.7513 L 6719.2458,2651.7513 L 6726.0678,2624.8424 L 6787.0864,2624.8424 L 6808.3103,2541.8419"
     style="font-size:776.18781;font-style:italic;font-variant:normal;font-weight:normal;font-stretch:normal;fill:#666666;fill-opacity:1.0000000;stroke:none;stroke-width:1.0000000px;stroke-linecap:butt;stroke-linejoin:miter;stroke-opacity:1.0000000;font-family:Monotype Corsiva;text-anchor:start;writing-mode:lr-tb" />
  <g
     transform="matrix(3.059827e-2,5.299777e-2,-5.299777e-2,3.059827e-2,4161.620,3890.267)"
     id="g1499">
    <path
       style="fill:#999999;fill-opacity:1.0000000;fill-rule:evenodd;stroke:none;stroke-width:1.0000000px;stroke-linecap:butt;stroke-linejoin:miter;stroke-opacity:1.0000000"
       d="M -32053.829,-42004.201 L -31566.857,-42004.201 C -31437.470,-42004.201 -31376.496,-41915.003 -31376.496,-41813.840 L -31376.496,-39622.467 C -31376.496,-39361.483 -31433.198,-39210.000 -31558.003,-38993.831 L -32517.836,-37331.350 C -32546.770,-37302.416 -32593.389,-37299.752 -32611.632,-37331.350 L -33676.613,-39175.952 C -33729.683,-39267.872 -33722.738,-39356.642 -33676.613,-39436.533 L -32268.097,-41876.156 C -32225.247,-41950.373 -32163.458,-42004.201 -32053.829,-42004.201 z "
       id="path1501"
       sodipodi:nodetypes="ccccccccccc" />
    <rect
       style="fill:#ffbe00;fill-opacity:1.0000000;stroke:none;stroke-opacity:1.0000000"
       id="rect1503"
       width="901.54724"
       height="756.17059"
       x="-31163.479"
       y="-41203.027" />
    <path
       style="fill:#ffbe00;fill-opacity:1.0000000;fill-rule:evenodd;stroke:none;stroke-width:1.0000000px;stroke-linecap:butt;stroke-linejoin:miter;stroke-opacity:1.0000000"
       d="M -31188.520,-39224.634 L -30274.452,-39224.634 L -29792.226,-38389.395 C -29792.226,-38085.303 -30259.627,-37762.528 -30700.182,-37762.528 C -31172.828,-37762.528 -31651.815,-38098.397 -31651.815,-38410.738 L -31188.520,-39224.634 z "
       id="path1505"
       sodipodi:nodetypes="cccccc" />
    <path
       style="fill:#ffbe00;fill-opacity:1.0000000;fill-rule:evenodd;stroke:none;stroke-width:1.0000000px;stroke-linecap:butt;stroke-linejoin:miter;stroke-opacity:1.0000000"
       d="M -31138.434,-41390.852 L -30274.452,-41390.852 L -30274.452,-41854.516 C -30274.452,-42076.579 -30139.234,-42223.531 -29905.436,-42223.531 L -29721.803,-42223.531 C -29721.803,-42583.719 -30177.197,-43078.307 -30705.906,-43078.307 C -31219.308,-43078.307 -31676.414,-42636.537 -31676.414,-42229.032 L -31510.803,-42229.032 C -31311.337,-42229.032 -31132.308,-42074.902 -31132.308,-41853.607 L -31138.434,-41390.852 z "
       id="path1507"
       sodipodi:nodetypes="cccccccccc" />
    <path
       style="fill:#999999;fill-opacity:1.0000000;fill-rule:evenodd;stroke:none;stroke-width:1.0000000px;stroke-linecap:butt;stroke-linejoin:miter;stroke-opacity:1.0000000"
       d="M -29357.725,-41996.810 L -29844.697,-41996.810 C -29974.084,-41996.810 -30035.058,-41907.612 -30035.058,-41806.448 L -30035.058,-39615.076 C -30035.058,-39354.092 -29978.356,-39202.608 -29853.551,-38986.440 L -28893.717,-37323.959 C -28864.783,-37295.025 -28818.164,-37292.361 -28799.921,-37323.959 L -27734.941,-39168.560 C -27681.871,-39260.480 -27688.816,-39349.250 -27734.941,-39429.141 L -29143.457,-41868.764 C -29186.307,-41942.982 -29248.096,-41996.810 -29357.725,-41996.810 z "
       id="path1509"
       sodipodi:nodetypes="ccccccccccc" />
    <rect
       style="fill:#ffbe00;fill-opacity:1.0000000;stroke:none;stroke-opacity:1.0000000"
       id="rect1511"
       width="901.54724"
       height="818.14880"
       x="-31167.645"
       y="-40261.746" />
  </g>
  <rect
     y="415.78143"
     x="2226.0686"
     height="3490.0427"
     width="5909.5171"
     id="rect1513"
     style="fill:none;fill-opacity:1.0000000;stroke:#000000;stroke-width:24.492699;stroke-miterlimit:4.0000000;stroke-opacity:1.0000000" />
  <path
     style="fill:none;fill-opacity:0.75000000;fill-rule:evenodd;stroke:#cccccc;stroke-width:24.530066;stroke-linecap:butt;stroke-linejoin:miter;stroke-miterlimit:4.0000000;stroke-opacity:1.0000000"
     d="M 6847.6913,2868.6189 C 6847.6913,2868.6189 7424.6207,2509.6516 7535.8729,2094.4526 C 7614.6136,1800.5885 7644.4168,1211.5823 5953.0573,1664.7807 C 5275.0161,1846.4613 3921.8296,1805.2733 4661.9469,1377.9663 C 4867.9983,1259.0025 5093.0972,1186.1100 5167.3300,1135.8103"
     id="path1515"
     sodipodi:nodetypes="ccccc" />
</svg>
