<?xml version="1.0" encoding="UTF-8" standalone="no"?><!-- Generator: Gravit.io --><svg xmlns="http://www.w3.org/2000/svg" xmlns:xlink="http://www.w3.org/1999/xlink" style="isolation:isolate" viewBox="0 0 128 128" width="128pt" height="128pt"><defs><clipPath id="_clipPath_F4TvVPniz1L4xN7FfiBhlmFNqhu3RHkw"><rect width="128" height="128"/></clipPath></defs><g clip-path="url(#_clipPath_F4TvVPniz1L4xN7FfiBhlmFNqhu3RHkw)"><mask id="_mask_lOQ5eYJk06dwMp1lVTF2sAAI7mWCkZF7" x="-200%" y="-200%" width="400%" height="400%"><rect x="-200%" y="-200%" width="400%" height="400%" style="fill:white;"/><path d=" M 123.931 64.008 C 123.949 74.284 121.309 84.388 116.271 93.345 C 108.552 107.069 95.582 117.445 80.085 121.754 C 74.851 123.205 69.441 123.939 64.008 123.935 C 30.915 123.935 4.085 97.105 4.085 64.008 C 4.076 55.998 5.677 48.062 8.793 40.683 C 17.89 19.178 39.187 4.085 64.008 4.085 C 97.105 4.085 123.931 30.915 123.931 64.008 Z " fill="black" stroke="none"/></mask><path d=" M 123.931 64.008 C 123.949 74.284 121.309 84.388 116.271 93.345 C 108.552 107.069 95.582 117.445 80.085 121.754 C 74.851 123.205 69.441 123.939 64.008 123.935 C 30.915 123.935 4.085 97.105 4.085 64.008 C 4.076 55.998 5.677 48.062 8.793 40.683 C 17.89 19.178 39.187 4.085 64.008 4.085 C 97.105 4.085 123.931 30.915 123.931 64.008 Z " fill="rgb(66,66,66)"/><path d=" M 123.931 64.008 C 123.949 74.284 121.309 84.388 116.271 93.345 C 108.552 107.069 95.582 117.445 80.085 121.754 C 74.851 123.205 69.441 123.939 64.008 123.935 C 30.915 123.935 4.085 97.105 4.085 64.008 C 4.076 55.998 5.677 48.062 8.793 40.683 C 17.89 19.178 39.187 4.085 64.008 4.085 C 97.105 4.085 123.931 30.915 123.931 64.008 Z " fill="rgb(66,66,66)" mask="url(#_mask_lOQ5eYJk06dwMp1lVTF2sAAI7mWCkZF7)" vector-effect="non-scaling-stroke" stroke-width="5.756" stroke="rgb(224,224,224)" stroke-opacity="100" stroke-linejoin="miter" stroke-linecap="butt" stroke-miterlimit="10"/><path d=" M 50.98 52.894 L 63.993 39.88 L 77.007 52.894 L 63.993 65.907 L 50.98 52.894 Z " fill="rgb(255,202,40)"/><path d=" M 29.923 73.946 L 47.906 55.963 L 52.875 60.933 L 34.892 78.916 L 29.923 73.946 Z " fill="rgb(224,224,224)"/><path d=" M 37.962 81.99 L 55.95 64.007 L 60.919 68.977 L 42.936 86.96 L 37.962 81.99 Z " fill="rgb(224,224,224)"/><path d=" M 85.065 86.984 L 67.082 69.001 L 72.056 64.031 L 90.039 82.014 L 85.065 86.984 Z " fill="rgb(224,224,224)"/><path d=" M 93.114 78.94 L 75.131 60.957 L 80.1 55.987 L 98.083 73.97 L 93.114 78.94 Z " fill="rgb(224,224,224)"/><path d=" M 55.945 80.095 L 63.989 72.051 L 72.033 80.095 L 63.989 88.139 L 55.945 80.095 Z " fill="rgb(255,202,40)"/></g></svg>